ISO-10303-21;
HEADER;
/* Generated by software containing ST-Developer
 * from STEP Tools, Inc. (www.steptools.com) 
 */

FILE_DESCRIPTION(
/* description */ (''),
/* implementation_level */ '2;1');

FILE_NAME(
/* name */ 'SC_SM_Cover.step',
/* time_stamp */ '2026-09-16T11:41:03+02:00',
/* author */ (''),
/* organization */ (''),
/* preprocessor_version */ 'ST-DEVELOPER v20.2',
/* originating_system */ 'Autodesk Translation Framework v15.15.0.0',
/* authorisation */ '');

FILE_SCHEMA (('AUTOMOTIVE_DESIGN { 1 0 10303 214 3 1 1 }'));
ENDSEC;

DATA;
#10=MECHANICAL_DESIGN_GEOMETRIC_PRESENTATION_REPRESENTATION('',(#25),#759);
#11=ITEM_DEFINED_TRANSFORMATION($,$,#453,#492);
#12=ITEM_DEFINED_TRANSFORMATION($,$,#452,#493);
#13=ITEM_DEFINED_TRANSFORMATION($,$,#451,#494);
#14=(
REPRESENTATION_RELATIONSHIP($,$,#778,#777)
REPRESENTATION_RELATIONSHIP_WITH_TRANSFORMATION(#11)
SHAPE_REPRESENTATION_RELATIONSHIP()
);
#15=(
REPRESENTATION_RELATIONSHIP($,$,#777,#776)
REPRESENTATION_RELATIONSHIP_WITH_TRANSFORMATION(#12)
SHAPE_REPRESENTATION_RELATIONSHIP()
);
#16=(
REPRESENTATION_RELATIONSHIP($,$,#776,#775)
REPRESENTATION_RELATIONSHIP_WITH_TRANSFORMATION(#13)
SHAPE_REPRESENTATION_RELATIONSHIP()
);
#17=CONTEXT_DEPENDENT_SHAPE_REPRESENTATION(#14,#772);
#18=CONTEXT_DEPENDENT_SHAPE_REPRESENTATION(#15,#773);
#19=CONTEXT_DEPENDENT_SHAPE_REPRESENTATION(#16,#774);
#20=NEXT_ASSEMBLY_USAGE_OCCURRENCE('Cover_SM:1','Cover_SM:1',
'Cover_SM:1',#782,#783,'Cover_SM:1');
#21=NEXT_ASSEMBLY_USAGE_OCCURRENCE('Slotcar_Modul_124:1',
'Slotcar_Modul_124:1','Slotcar_Modul_124:1',#781,#782,
'Slotcar_Modul_124:1');
#22=NEXT_ASSEMBLY_USAGE_OCCURRENCE('SlotCrate-124:1','SlotCrate-124:1',
'SlotCrate-124:1',#780,#781,'SlotCrate-124:1');
#23=SHAPE_REPRESENTATION_RELATIONSHIP('SRR','None',#778,#24);
#24=ADVANCED_BREP_SHAPE_REPRESENTATION('',(#26),#758);
#25=STYLED_ITEM('',(#801),#26);
#26=MANIFOLD_SOLID_BREP('SC_SM_cover_without_logo',#437);
#27=FACE_BOUND('',#175,.T.);
#28=FACE_BOUND('',#176,.T.);
#29=FACE_BOUND('',#177,.T.);
#30=FACE_BOUND('',#178,.T.);
#31=FACE_BOUND('',#179,.T.);
#32=FACE_BOUND('',#180,.T.);
#33=CYLINDRICAL_SURFACE('',#467,2.6);
#34=CYLINDRICAL_SURFACE('',#469,2.6);
#35=CYLINDRICAL_SURFACE('',#471,2.6);
#36=CYLINDRICAL_SURFACE('',#473,2.6);
#37=CYLINDRICAL_SURFACE('',#475,2.6);
#38=CYLINDRICAL_SURFACE('',#477,2.6);
#39=LINE('',#652,#81);
#40=LINE('',#654,#82);
#41=LINE('',#656,#83);
#42=LINE('',#658,#84);
#43=LINE('',#660,#85);
#44=LINE('',#662,#86);
#45=LINE('',#664,#87);
#46=LINE('',#666,#88);
#47=LINE('',#668,#89);
#48=LINE('',#670,#90);
#49=LINE('',#672,#91);
#50=LINE('',#673,#92);
#51=LINE('',#676,#93);
#52=LINE('',#680,#94);
#53=LINE('',#684,#95);
#54=LINE('',#688,#96);
#55=LINE('',#692,#97);
#56=LINE('',#696,#98);
#57=LINE('',#701,#99);
#58=LINE('',#702,#100);
#59=LINE('',#703,#101);
#60=LINE('',#706,#102);
#61=LINE('',#707,#103);
#62=LINE('',#710,#104);
#63=LINE('',#711,#105);
#64=LINE('',#714,#106);
#65=LINE('',#715,#107);
#66=LINE('',#718,#108);
#67=LINE('',#719,#109);
#68=LINE('',#722,#110);
#69=LINE('',#723,#111);
#70=LINE('',#726,#112);
#71=LINE('',#727,#113);
#72=LINE('',#730,#114);
#73=LINE('',#731,#115);
#74=LINE('',#734,#116);
#75=LINE('',#735,#117);
#76=LINE('',#738,#118);
#77=LINE('',#739,#119);
#78=LINE('',#742,#120);
#79=LINE('',#743,#121);
#80=LINE('',#745,#122);
#81=VECTOR('',#529,10.);
#82=VECTOR('',#530,10.);
#83=VECTOR('',#531,10.);
#84=VECTOR('',#532,10.);
#85=VECTOR('',#533,10.);
#86=VECTOR('',#534,10.);
#87=VECTOR('',#535,10.);
#88=VECTOR('',#536,10.);
#89=VECTOR('',#537,10.);
#90=VECTOR('',#538,10.);
#91=VECTOR('',#539,10.);
#92=VECTOR('',#540,10.);
#93=VECTOR('',#543,2.6);
#94=VECTOR('',#548,2.6);
#95=VECTOR('',#553,2.6);
#96=VECTOR('',#558,2.6);
#97=VECTOR('',#563,2.6);
#98=VECTOR('',#568,2.6);
#99=VECTOR('',#573,10.);
#100=VECTOR('',#574,10.);
#101=VECTOR('',#575,10.);
#102=VECTOR('',#578,10.);
#103=VECTOR('',#579,10.);
#104=VECTOR('',#582,10.);
#105=VECTOR('',#583,10.);
#106=VECTOR('',#586,10.);
#107=VECTOR('',#587,10.);
#108=VECTOR('',#590,10.);
#109=VECTOR('',#591,10.);
#110=VECTOR('',#594,10.);
#111=VECTOR('',#595,10.);
#112=VECTOR('',#598,10.);
#113=VECTOR('',#599,10.);
#114=VECTOR('',#602,10.);
#115=VECTOR('',#603,10.);
#116=VECTOR('',#606,10.);
#117=VECTOR('',#607,10.);
#118=VECTOR('',#610,10.);
#119=VECTOR('',#611,10.);
#120=VECTOR('',#614,10.);
#121=VECTOR('',#615,10.);
#122=VECTOR('',#618,10.);
#123=FACE_OUTER_BOUND('',#149,.T.);
#124=FACE_OUTER_BOUND('',#150,.T.);
#125=FACE_OUTER_BOUND('',#151,.T.);
#126=FACE_OUTER_BOUND('',#152,.T.);
#127=FACE_OUTER_BOUND('',#153,.T.);
#128=FACE_OUTER_BOUND('',#154,.T.);
#129=FACE_OUTER_BOUND('',#155,.T.);
#130=FACE_OUTER_BOUND('',#156,.T.);
#131=FACE_OUTER_BOUND('',#157,.T.);
#132=FACE_OUTER_BOUND('',#158,.T.);
#133=FACE_OUTER_BOUND('',#159,.T.);
#134=FACE_OUTER_BOUND('',#160,.T.);
#135=FACE_OUTER_BOUND('',#161,.T.);
#136=FACE_OUTER_BOUND('',#162,.T.);
#137=FACE_OUTER_BOUND('',#163,.T.);
#138=FACE_OUTER_BOUND('',#164,.T.);
#139=FACE_OUTER_BOUND('',#165,.T.);
#140=FACE_OUTER_BOUND('',#166,.T.);
#141=FACE_OUTER_BOUND('',#167,.T.);
#142=FACE_OUTER_BOUND('',#168,.T.);
#143=FACE_OUTER_BOUND('',#169,.T.);
#144=FACE_OUTER_BOUND('',#170,.T.);
#145=FACE_OUTER_BOUND('',#171,.T.);
#146=FACE_OUTER_BOUND('',#172,.T.);
#147=FACE_OUTER_BOUND('',#173,.T.);
#148=FACE_OUTER_BOUND('',#174,.T.);
#149=EDGE_LOOP('',(#283));
#150=EDGE_LOOP('',(#284));
#151=EDGE_LOOP('',(#285));
#152=EDGE_LOOP('',(#286));
#153=EDGE_LOOP('',(#287));
#154=EDGE_LOOP('',(#288));
#155=EDGE_LOOP('',(#289,#290,#291,#292,#293,#294,#295,#296,#297,#298,#299,
#300));
#156=EDGE_LOOP('',(#301,#302,#303,#304));
#157=EDGE_LOOP('',(#305,#306,#307,#308));
#158=EDGE_LOOP('',(#309,#310,#311,#312));
#159=EDGE_LOOP('',(#313,#314,#315,#316));
#160=EDGE_LOOP('',(#317,#318,#319,#320));
#161=EDGE_LOOP('',(#321,#322,#323,#324));
#162=EDGE_LOOP('',(#325,#326,#327,#328));
#163=EDGE_LOOP('',(#329,#330,#331,#332));
#164=EDGE_LOOP('',(#333,#334,#335,#336));
#165=EDGE_LOOP('',(#337,#338,#339,#340));
#166=EDGE_LOOP('',(#341,#342,#343,#344));
#167=EDGE_LOOP('',(#345,#346,#347,#348));
#168=EDGE_LOOP('',(#349,#350,#351,#352));
#169=EDGE_LOOP('',(#353,#354,#355,#356));
#170=EDGE_LOOP('',(#357,#358,#359,#360));
#171=EDGE_LOOP('',(#361,#362,#363,#364));
#172=EDGE_LOOP('',(#365,#366,#367,#368));
#173=EDGE_LOOP('',(#369,#370,#371,#372));
#174=EDGE_LOOP('',(#373,#374,#375,#376,#377,#378,#379,#380,#381,#382,#383,
#384));
#175=EDGE_LOOP('',(#385));
#176=EDGE_LOOP('',(#386));
#177=EDGE_LOOP('',(#387));
#178=EDGE_LOOP('',(#388));
#179=EDGE_LOOP('',(#389));
#180=EDGE_LOOP('',(#390));
#181=CIRCLE('',#455,2.6);
#182=CIRCLE('',#457,2.6);
#183=CIRCLE('',#459,2.6);
#184=CIRCLE('',#461,2.6);
#185=CIRCLE('',#463,2.6);
#186=CIRCLE('',#465,2.6);
#187=CIRCLE('',#468,2.6);
#188=CIRCLE('',#470,2.6);
#189=CIRCLE('',#472,2.6);
#190=CIRCLE('',#474,2.6);
#191=CIRCLE('',#476,2.6);
#192=CIRCLE('',#478,2.6);
#193=VERTEX_POINT('',#632);
#194=VERTEX_POINT('',#635);
#195=VERTEX_POINT('',#638);
#196=VERTEX_POINT('',#641);
#197=VERTEX_POINT('',#644);
#198=VERTEX_POINT('',#647);
#199=VERTEX_POINT('',#650);
#200=VERTEX_POINT('',#651);
#201=VERTEX_POINT('',#653);
#202=VERTEX_POINT('',#655);
#203=VERTEX_POINT('',#657);
#204=VERTEX_POINT('',#659);
#205=VERTEX_POINT('',#661);
#206=VERTEX_POINT('',#663);
#207=VERTEX_POINT('',#665);
#208=VERTEX_POINT('',#667);
#209=VERTEX_POINT('',#669);
#210=VERTEX_POINT('',#671);
#211=VERTEX_POINT('',#675);
#212=VERTEX_POINT('',#679);
#213=VERTEX_POINT('',#683);
#214=VERTEX_POINT('',#687);
#215=VERTEX_POINT('',#691);
#216=VERTEX_POINT('',#695);
#217=VERTEX_POINT('',#699);
#218=VERTEX_POINT('',#700);
#219=VERTEX_POINT('',#705);
#220=VERTEX_POINT('',#709);
#221=VERTEX_POINT('',#713);
#222=VERTEX_POINT('',#717);
#223=VERTEX_POINT('',#721);
#224=VERTEX_POINT('',#725);
#225=VERTEX_POINT('',#729);
#226=VERTEX_POINT('',#733);
#227=VERTEX_POINT('',#737);
#228=VERTEX_POINT('',#741);
#229=EDGE_CURVE('',#193,#193,#181,.T.);
#230=EDGE_CURVE('',#194,#194,#182,.T.);
#231=EDGE_CURVE('',#195,#195,#183,.T.);
#232=EDGE_CURVE('',#196,#196,#184,.T.);
#233=EDGE_CURVE('',#197,#197,#185,.T.);
#234=EDGE_CURVE('',#198,#198,#186,.T.);
#235=EDGE_CURVE('',#199,#200,#39,.T.);
#236=EDGE_CURVE('',#200,#201,#40,.T.);
#237=EDGE_CURVE('',#201,#202,#41,.T.);
#238=EDGE_CURVE('',#202,#203,#42,.T.);
#239=EDGE_CURVE('',#203,#204,#43,.T.);
#240=EDGE_CURVE('',#204,#205,#44,.T.);
#241=EDGE_CURVE('',#205,#206,#45,.T.);
#242=EDGE_CURVE('',#206,#207,#46,.T.);
#243=EDGE_CURVE('',#207,#208,#47,.T.);
#244=EDGE_CURVE('',#208,#209,#48,.T.);
#245=EDGE_CURVE('',#209,#210,#49,.T.);
#246=EDGE_CURVE('',#210,#199,#50,.T.);
#247=EDGE_CURVE('',#198,#211,#51,.T.);
#248=EDGE_CURVE('',#211,#211,#187,.T.);
#249=EDGE_CURVE('',#197,#212,#52,.T.);
#250=EDGE_CURVE('',#212,#212,#188,.T.);
#251=EDGE_CURVE('',#196,#213,#53,.T.);
#252=EDGE_CURVE('',#213,#213,#189,.T.);
#253=EDGE_CURVE('',#195,#214,#54,.T.);
#254=EDGE_CURVE('',#214,#214,#190,.T.);
#255=EDGE_CURVE('',#194,#215,#55,.T.);
#256=EDGE_CURVE('',#215,#215,#191,.T.);
#257=EDGE_CURVE('',#193,#216,#56,.T.);
#258=EDGE_CURVE('',#216,#216,#192,.T.);
#259=EDGE_CURVE('',#217,#218,#57,.T.);
#260=EDGE_CURVE('',#217,#200,#58,.T.);
#261=EDGE_CURVE('',#218,#199,#59,.T.);
#262=EDGE_CURVE('',#218,#219,#60,.T.);
#263=EDGE_CURVE('',#219,#210,#61,.T.);
#264=EDGE_CURVE('',#219,#220,#62,.T.);
#265=EDGE_CURVE('',#220,#209,#63,.T.);
#266=EDGE_CURVE('',#220,#221,#64,.T.);
#267=EDGE_CURVE('',#221,#208,#65,.T.);
#268=EDGE_CURVE('',#221,#222,#66,.T.);
#269=EDGE_CURVE('',#222,#207,#67,.T.);
#270=EDGE_CURVE('',#223,#222,#68,.T.);
#271=EDGE_CURVE('',#223,#206,#69,.T.);
#272=EDGE_CURVE('',#223,#224,#70,.T.);
#273=EDGE_CURVE('',#224,#205,#71,.T.);
#274=EDGE_CURVE('',#224,#225,#72,.T.);
#275=EDGE_CURVE('',#225,#204,#73,.T.);
#276=EDGE_CURVE('',#225,#226,#74,.T.);
#277=EDGE_CURVE('',#226,#203,#75,.T.);
#278=EDGE_CURVE('',#226,#227,#76,.T.);
#279=EDGE_CURVE('',#227,#202,#77,.T.);
#280=EDGE_CURVE('',#227,#228,#78,.T.);
#281=EDGE_CURVE('',#228,#201,#79,.T.);
#282=EDGE_CURVE('',#217,#228,#80,.T.);
#283=ORIENTED_EDGE('',*,*,#229,.T.);
#284=ORIENTED_EDGE('',*,*,#230,.T.);
#285=ORIENTED_EDGE('',*,*,#231,.T.);
#286=ORIENTED_EDGE('',*,*,#232,.T.);
#287=ORIENTED_EDGE('',*,*,#233,.T.);
#288=ORIENTED_EDGE('',*,*,#234,.T.);
#289=ORIENTED_EDGE('',*,*,#235,.T.);
#290=ORIENTED_EDGE('',*,*,#236,.T.);
#291=ORIENTED_EDGE('',*,*,#237,.T.);
#292=ORIENTED_EDGE('',*,*,#238,.T.);
#293=ORIENTED_EDGE('',*,*,#239,.T.);
#294=ORIENTED_EDGE('',*,*,#240,.T.);
#295=ORIENTED_EDGE('',*,*,#241,.T.);
#296=ORIENTED_EDGE('',*,*,#242,.T.);
#297=ORIENTED_EDGE('',*,*,#243,.T.);
#298=ORIENTED_EDGE('',*,*,#244,.T.);
#299=ORIENTED_EDGE('',*,*,#245,.T.);
#300=ORIENTED_EDGE('',*,*,#246,.T.);
#301=ORIENTED_EDGE('',*,*,#234,.F.);
#302=ORIENTED_EDGE('',*,*,#247,.T.);
#303=ORIENTED_EDGE('',*,*,#248,.T.);
#304=ORIENTED_EDGE('',*,*,#247,.F.);
#305=ORIENTED_EDGE('',*,*,#233,.F.);
#306=ORIENTED_EDGE('',*,*,#249,.T.);
#307=ORIENTED_EDGE('',*,*,#250,.T.);
#308=ORIENTED_EDGE('',*,*,#249,.F.);
#309=ORIENTED_EDGE('',*,*,#232,.F.);
#310=ORIENTED_EDGE('',*,*,#251,.T.);
#311=ORIENTED_EDGE('',*,*,#252,.T.);
#312=ORIENTED_EDGE('',*,*,#251,.F.);
#313=ORIENTED_EDGE('',*,*,#231,.F.);
#314=ORIENTED_EDGE('',*,*,#253,.T.);
#315=ORIENTED_EDGE('',*,*,#254,.T.);
#316=ORIENTED_EDGE('',*,*,#253,.F.);
#317=ORIENTED_EDGE('',*,*,#230,.F.);
#318=ORIENTED_EDGE('',*,*,#255,.T.);
#319=ORIENTED_EDGE('',*,*,#256,.T.);
#320=ORIENTED_EDGE('',*,*,#255,.F.);
#321=ORIENTED_EDGE('',*,*,#229,.F.);
#322=ORIENTED_EDGE('',*,*,#257,.T.);
#323=ORIENTED_EDGE('',*,*,#258,.T.);
#324=ORIENTED_EDGE('',*,*,#257,.F.);
#325=ORIENTED_EDGE('',*,*,#259,.F.);
#326=ORIENTED_EDGE('',*,*,#260,.T.);
#327=ORIENTED_EDGE('',*,*,#235,.F.);
#328=ORIENTED_EDGE('',*,*,#261,.F.);
#329=ORIENTED_EDGE('',*,*,#262,.F.);
#330=ORIENTED_EDGE('',*,*,#261,.T.);
#331=ORIENTED_EDGE('',*,*,#246,.F.);
#332=ORIENTED_EDGE('',*,*,#263,.F.);
#333=ORIENTED_EDGE('',*,*,#264,.F.);
#334=ORIENTED_EDGE('',*,*,#263,.T.);
#335=ORIENTED_EDGE('',*,*,#245,.F.);
#336=ORIENTED_EDGE('',*,*,#265,.F.);
#337=ORIENTED_EDGE('',*,*,#266,.F.);
#338=ORIENTED_EDGE('',*,*,#265,.T.);
#339=ORIENTED_EDGE('',*,*,#244,.F.);
#340=ORIENTED_EDGE('',*,*,#267,.F.);
#341=ORIENTED_EDGE('',*,*,#268,.F.);
#342=ORIENTED_EDGE('',*,*,#267,.T.);
#343=ORIENTED_EDGE('',*,*,#243,.F.);
#344=ORIENTED_EDGE('',*,*,#269,.F.);
#345=ORIENTED_EDGE('',*,*,#270,.T.);
#346=ORIENTED_EDGE('',*,*,#269,.T.);
#347=ORIENTED_EDGE('',*,*,#242,.F.);
#348=ORIENTED_EDGE('',*,*,#271,.F.);
#349=ORIENTED_EDGE('',*,*,#272,.F.);
#350=ORIENTED_EDGE('',*,*,#271,.T.);
#351=ORIENTED_EDGE('',*,*,#241,.F.);
#352=ORIENTED_EDGE('',*,*,#273,.F.);
#353=ORIENTED_EDGE('',*,*,#274,.F.);
#354=ORIENTED_EDGE('',*,*,#273,.T.);
#355=ORIENTED_EDGE('',*,*,#240,.F.);
#356=ORIENTED_EDGE('',*,*,#275,.F.);
#357=ORIENTED_EDGE('',*,*,#276,.F.);
#358=ORIENTED_EDGE('',*,*,#275,.T.);
#359=ORIENTED_EDGE('',*,*,#239,.F.);
#360=ORIENTED_EDGE('',*,*,#277,.F.);
#361=ORIENTED_EDGE('',*,*,#278,.F.);
#362=ORIENTED_EDGE('',*,*,#277,.T.);
#363=ORIENTED_EDGE('',*,*,#238,.F.);
#364=ORIENTED_EDGE('',*,*,#279,.F.);
#365=ORIENTED_EDGE('',*,*,#280,.F.);
#366=ORIENTED_EDGE('',*,*,#279,.T.);
#367=ORIENTED_EDGE('',*,*,#237,.F.);
#368=ORIENTED_EDGE('',*,*,#281,.F.);
#369=ORIENTED_EDGE('',*,*,#282,.T.);
#370=ORIENTED_EDGE('',*,*,#281,.T.);
#371=ORIENTED_EDGE('',*,*,#236,.F.);
#372=ORIENTED_EDGE('',*,*,#260,.F.);
#373=ORIENTED_EDGE('',*,*,#282,.F.);
#374=ORIENTED_EDGE('',*,*,#259,.T.);
#375=ORIENTED_EDGE('',*,*,#262,.T.);
#376=ORIENTED_EDGE('',*,*,#264,.T.);
#377=ORIENTED_EDGE('',*,*,#266,.T.);
#378=ORIENTED_EDGE('',*,*,#268,.T.);
#379=ORIENTED_EDGE('',*,*,#270,.F.);
#380=ORIENTED_EDGE('',*,*,#272,.T.);
#381=ORIENTED_EDGE('',*,*,#274,.T.);
#382=ORIENTED_EDGE('',*,*,#276,.T.);
#383=ORIENTED_EDGE('',*,*,#278,.T.);
#384=ORIENTED_EDGE('',*,*,#280,.T.);
#385=ORIENTED_EDGE('',*,*,#258,.F.);
#386=ORIENTED_EDGE('',*,*,#256,.F.);
#387=ORIENTED_EDGE('',*,*,#254,.F.);
#388=ORIENTED_EDGE('',*,*,#252,.F.);
#389=ORIENTED_EDGE('',*,*,#250,.F.);
#390=ORIENTED_EDGE('',*,*,#248,.F.);
#391=PLANE('',#454);
#392=PLANE('',#456);
#393=PLANE('',#458);
#394=PLANE('',#460);
#395=PLANE('',#462);
#396=PLANE('',#464);
#397=PLANE('',#466);
#398=PLANE('',#479);
#399=PLANE('',#480);
#400=PLANE('',#481);
#401=PLANE('',#482);
#402=PLANE('',#483);
#403=PLANE('',#484);
#404=PLANE('',#485);
#405=PLANE('',#486);
#406=PLANE('',#487);
#407=PLANE('',#488);
#408=PLANE('',#489);
#409=PLANE('',#490);
#410=PLANE('',#491);
#411=ADVANCED_FACE('',(#123),#391,.F.);
#412=ADVANCED_FACE('',(#124),#392,.F.);
#413=ADVANCED_FACE('',(#125),#393,.F.);
#414=ADVANCED_FACE('',(#126),#394,.F.);
#415=ADVANCED_FACE('',(#127),#395,.F.);
#416=ADVANCED_FACE('',(#128),#396,.F.);
#417=ADVANCED_FACE('',(#129),#397,.T.);
#418=ADVANCED_FACE('',(#130),#33,.F.);
#419=ADVANCED_FACE('',(#131),#34,.F.);
#420=ADVANCED_FACE('',(#132),#35,.F.);
#421=ADVANCED_FACE('',(#133),#36,.F.);
#422=ADVANCED_FACE('',(#134),#37,.F.);
#423=ADVANCED_FACE('',(#135),#38,.F.);
#424=ADVANCED_FACE('',(#136),#398,.T.);
#425=ADVANCED_FACE('',(#137),#399,.T.);
#426=ADVANCED_FACE('',(#138),#400,.T.);
#427=ADVANCED_FACE('',(#139),#401,.T.);
#428=ADVANCED_FACE('',(#140),#402,.T.);
#429=ADVANCED_FACE('',(#141),#403,.T.);
#430=ADVANCED_FACE('',(#142),#404,.T.);
#431=ADVANCED_FACE('',(#143),#405,.T.);
#432=ADVANCED_FACE('',(#144),#406,.T.);
#433=ADVANCED_FACE('',(#145),#407,.T.);
#434=ADVANCED_FACE('',(#146),#408,.T.);
#435=ADVANCED_FACE('',(#147),#409,.T.);
#436=ADVANCED_FACE('',(#148,#27,#28,#29,#30,#31,#32),#410,.F.);
#437=CLOSED_SHELL('',(#411,#412,#413,#414,#415,#416,#417,#418,#419,#420,
#421,#422,#423,#424,#425,#426,#427,#428,#429,#430,#431,#432,#433,#434,#435,
#436));
#438=DERIVED_UNIT_ELEMENT(#440,1.);
#439=DERIVED_UNIT_ELEMENT(#761,-3.);
#440=(
MASS_UNIT()
NAMED_UNIT(*)
SI_UNIT(.KILO.,.GRAM.)
);
#441=DERIVED_UNIT((#438,#439));
#442=MEASURE_REPRESENTATION_ITEM('density measure',
POSITIVE_RATIO_MEASURE(1060.),#441);
#443=PROPERTY_DEFINITION_REPRESENTATION(#448,#445);
#444=PROPERTY_DEFINITION_REPRESENTATION(#449,#446);
#445=REPRESENTATION('material name',(#447),#758);
#446=REPRESENTATION('density',(#442),#758);
#447=DESCRIPTIVE_REPRESENTATION_ITEM('ABS-Kunststoff','ABS-Kunststoff');
#448=PROPERTY_DEFINITION('material property','material name',#783);
#449=PROPERTY_DEFINITION('material property','density of part',#783);
#450=AXIS2_PLACEMENT_3D('',#627,#495,#496);
#451=AXIS2_PLACEMENT_3D('',#628,#497,#498);
#452=AXIS2_PLACEMENT_3D('',#629,#499,#500);
#453=AXIS2_PLACEMENT_3D('',#630,#501,#502);
#454=AXIS2_PLACEMENT_3D('',#631,#503,#504);
#455=AXIS2_PLACEMENT_3D('',#633,#505,#506);
#456=AXIS2_PLACEMENT_3D('',#634,#507,#508);
#457=AXIS2_PLACEMENT_3D('',#636,#509,#510);
#458=AXIS2_PLACEMENT_3D('',#637,#511,#512);
#459=AXIS2_PLACEMENT_3D('',#639,#513,#514);
#460=AXIS2_PLACEMENT_3D('',#640,#515,#516);
#461=AXIS2_PLACEMENT_3D('',#642,#517,#518);
#462=AXIS2_PLACEMENT_3D('',#643,#519,#520);
#463=AXIS2_PLACEMENT_3D('',#645,#521,#522);
#464=AXIS2_PLACEMENT_3D('',#646,#523,#524);
#465=AXIS2_PLACEMENT_3D('',#648,#525,#526);
#466=AXIS2_PLACEMENT_3D('',#649,#527,#528);
#467=AXIS2_PLACEMENT_3D('',#674,#541,#542);
#468=AXIS2_PLACEMENT_3D('',#677,#544,#545);
#469=AXIS2_PLACEMENT_3D('',#678,#546,#547);
#470=AXIS2_PLACEMENT_3D('',#681,#549,#550);
#471=AXIS2_PLACEMENT_3D('',#682,#551,#552);
#472=AXIS2_PLACEMENT_3D('',#685,#554,#555);
#473=AXIS2_PLACEMENT_3D('',#686,#556,#557);
#474=AXIS2_PLACEMENT_3D('',#689,#559,#560);
#475=AXIS2_PLACEMENT_3D('',#690,#561,#562);
#476=AXIS2_PLACEMENT_3D('',#693,#564,#565);
#477=AXIS2_PLACEMENT_3D('',#694,#566,#567);
#478=AXIS2_PLACEMENT_3D('',#697,#569,#570);
#479=AXIS2_PLACEMENT_3D('',#698,#571,#572);
#480=AXIS2_PLACEMENT_3D('',#704,#576,#577);
#481=AXIS2_PLACEMENT_3D('',#708,#580,#581);
#482=AXIS2_PLACEMENT_3D('',#712,#584,#585);
#483=AXIS2_PLACEMENT_3D('',#716,#588,#589);
#484=AXIS2_PLACEMENT_3D('',#720,#592,#593);
#485=AXIS2_PLACEMENT_3D('',#724,#596,#597);
#486=AXIS2_PLACEMENT_3D('',#728,#600,#601);
#487=AXIS2_PLACEMENT_3D('',#732,#604,#605);
#488=AXIS2_PLACEMENT_3D('',#736,#608,#609);
#489=AXIS2_PLACEMENT_3D('',#740,#612,#613);
#490=AXIS2_PLACEMENT_3D('',#744,#616,#617);
#491=AXIS2_PLACEMENT_3D('',#746,#619,#620);
#492=AXIS2_PLACEMENT_3D('',#747,#621,#622);
#493=AXIS2_PLACEMENT_3D('',#748,#623,#624);
#494=AXIS2_PLACEMENT_3D('',#749,#625,#626);
#495=DIRECTION('axis',(0.,0.,1.));
#496=DIRECTION('refdir',(1.,0.,0.));
#497=DIRECTION('axis',(0.,0.,1.));
#498=DIRECTION('refdir',(1.,0.,0.));
#499=DIRECTION('axis',(0.,0.,1.));
#500=DIRECTION('refdir',(1.,0.,0.));
#501=DIRECTION('axis',(0.,0.,1.));
#502=DIRECTION('refdir',(1.,0.,0.));
#503=DIRECTION('center_axis',(0.,0.,1.));
#504=DIRECTION('ref_axis',(1.,0.,0.));
#505=DIRECTION('center_axis',(0.,0.,-1.));
#506=DIRECTION('ref_axis',(1.,0.,0.));
#507=DIRECTION('center_axis',(0.,0.,1.));
#508=DIRECTION('ref_axis',(1.,0.,0.));
#509=DIRECTION('center_axis',(0.,0.,-1.));
#510=DIRECTION('ref_axis',(1.,0.,0.));
#511=DIRECTION('center_axis',(0.,0.,1.));
#512=DIRECTION('ref_axis',(1.,0.,0.));
#513=DIRECTION('center_axis',(0.,0.,-1.));
#514=DIRECTION('ref_axis',(1.,0.,0.));
#515=DIRECTION('center_axis',(0.,0.,1.));
#516=DIRECTION('ref_axis',(1.,0.,0.));
#517=DIRECTION('center_axis',(0.,0.,-1.));
#518=DIRECTION('ref_axis',(1.,0.,0.));
#519=DIRECTION('center_axis',(0.,0.,1.));
#520=DIRECTION('ref_axis',(1.,0.,0.));
#521=DIRECTION('center_axis',(0.,0.,-1.));
#522=DIRECTION('ref_axis',(1.,0.,0.));
#523=DIRECTION('center_axis',(0.,0.,1.));
#524=DIRECTION('ref_axis',(1.,0.,0.));
#525=DIRECTION('center_axis',(0.,0.,-1.));
#526=DIRECTION('ref_axis',(1.,0.,0.));
#527=DIRECTION('center_axis',(0.,0.,1.));
#528=DIRECTION('ref_axis',(1.,0.,0.));
#529=DIRECTION('',(0.413802944301182,0.910366477462606,0.));
#530=DIRECTION('',(0.,1.,0.));
#531=DIRECTION('',(-0.413802944301266,0.910366477462568,0.));
#532=DIRECTION('',(-0.910366477462608,0.413802944301177,0.));
#533=DIRECTION('',(-1.,-1.07621729003462E-15,0.));
#534=DIRECTION('',(-0.910366477462645,-0.413802944301096,0.));
#535=DIRECTION('',(-0.413802944301266,-0.910366477462567,0.));
#536=DIRECTION('',(0.,-1.,0.));
#537=DIRECTION('',(0.413802944301189,-0.910366477462602,0.));
#538=DIRECTION('',(0.910366477462606,-0.413802944301182,0.));
#539=DIRECTION('',(1.,-7.73531177212365E-16,0.));
#540=DIRECTION('',(0.910366477462582,0.413802944301233,0.));
#541=DIRECTION('center_axis',(0.,0.,1.));
#542=DIRECTION('ref_axis',(1.,0.,0.));
#543=DIRECTION('',(0.,0.,-1.));
#544=DIRECTION('center_axis',(0.,0.,-1.));
#545=DIRECTION('ref_axis',(1.,0.,0.));
#546=DIRECTION('center_axis',(0.,0.,1.));
#547=DIRECTION('ref_axis',(1.,0.,0.));
#548=DIRECTION('',(0.,0.,-1.));
#549=DIRECTION('center_axis',(0.,0.,-1.));
#550=DIRECTION('ref_axis',(1.,0.,0.));
#551=DIRECTION('center_axis',(0.,0.,1.));
#552=DIRECTION('ref_axis',(1.,0.,0.));
#553=DIRECTION('',(0.,0.,-1.));
#554=DIRECTION('center_axis',(0.,0.,-1.));
#555=DIRECTION('ref_axis',(1.,0.,0.));
#556=DIRECTION('center_axis',(0.,0.,1.));
#557=DIRECTION('ref_axis',(1.,0.,0.));
#558=DIRECTION('',(0.,0.,-1.));
#559=DIRECTION('center_axis',(0.,0.,-1.));
#560=DIRECTION('ref_axis',(1.,0.,0.));
#561=DIRECTION('center_axis',(0.,0.,1.));
#562=DIRECTION('ref_axis',(1.,0.,0.));
#563=DIRECTION('',(0.,0.,-1.));
#564=DIRECTION('center_axis',(0.,0.,-1.));
#565=DIRECTION('ref_axis',(1.,0.,0.));
#566=DIRECTION('center_axis',(0.,0.,1.));
#567=DIRECTION('ref_axis',(1.,0.,0.));
#568=DIRECTION('',(0.,0.,-1.));
#569=DIRECTION('center_axis',(0.,0.,-1.));
#570=DIRECTION('ref_axis',(1.,0.,0.));
#571=DIRECTION('center_axis',(0.910366477462606,-0.413802944301182,0.));
#572=DIRECTION('ref_axis',(0.413802944301182,0.910366477462606,0.));
#573=DIRECTION('',(-0.413802944301182,-0.910366477462606,0.));
#574=DIRECTION('',(0.,0.,1.));
#575=DIRECTION('',(0.,0.,1.));
#576=DIRECTION('center_axis',(0.413802944301233,-0.910366477462583,0.));
#577=DIRECTION('ref_axis',(0.910366477462582,0.413802944301233,0.));
#578=DIRECTION('',(-0.910366477462582,-0.413802944301233,0.));
#579=DIRECTION('',(0.,0.,1.));
#580=DIRECTION('center_axis',(-7.73531177212365E-16,-1.,0.));
#581=DIRECTION('ref_axis',(1.,-7.73531177212365E-16,0.));
#582=DIRECTION('',(-1.,7.73531177212365E-16,0.));
#583=DIRECTION('',(0.,0.,1.));
#584=DIRECTION('center_axis',(-0.413802944301182,-0.910366477462606,0.));
#585=DIRECTION('ref_axis',(0.910366477462606,-0.413802944301182,0.));
#586=DIRECTION('',(-0.910366477462606,0.413802944301182,0.));
#587=DIRECTION('',(0.,0.,1.));
#588=DIRECTION('center_axis',(-0.910366477462602,-0.413802944301189,0.));
#589=DIRECTION('ref_axis',(0.413802944301189,-0.910366477462602,0.));
#590=DIRECTION('',(-0.413802944301189,0.910366477462602,0.));
#591=DIRECTION('',(0.,0.,1.));
#592=DIRECTION('center_axis',(-1.,0.,0.));
#593=DIRECTION('ref_axis',(0.,-1.,0.));
#594=DIRECTION('',(0.,-1.,0.));
#595=DIRECTION('',(0.,0.,1.));
#596=DIRECTION('center_axis',(-0.910366477462567,0.413802944301266,0.));
#597=DIRECTION('ref_axis',(-0.413802944301266,-0.910366477462567,0.));
#598=DIRECTION('',(0.413802944301266,0.910366477462567,0.));
#599=DIRECTION('',(0.,0.,1.));
#600=DIRECTION('center_axis',(-0.413802944301096,0.910366477462645,0.));
#601=DIRECTION('ref_axis',(-0.910366477462645,-0.413802944301096,0.));
#602=DIRECTION('',(0.910366477462645,0.413802944301096,0.));
#603=DIRECTION('',(0.,0.,1.));
#604=DIRECTION('center_axis',(-1.07621729003462E-15,1.,0.));
#605=DIRECTION('ref_axis',(-1.,-1.07621729003462E-15,0.));
#606=DIRECTION('',(1.,1.07621729003462E-15,0.));
#607=DIRECTION('',(0.,0.,1.));
#608=DIRECTION('center_axis',(0.413802944301177,0.910366477462608,0.));
#609=DIRECTION('ref_axis',(-0.910366477462608,0.413802944301177,0.));
#610=DIRECTION('',(0.910366477462608,-0.413802944301177,0.));
#611=DIRECTION('',(0.,0.,1.));
#612=DIRECTION('center_axis',(0.910366477462568,0.413802944301266,0.));
#613=DIRECTION('ref_axis',(-0.413802944301266,0.910366477462568,0.));
#614=DIRECTION('',(0.413802944301266,-0.910366477462568,0.));
#615=DIRECTION('',(0.,0.,1.));
#616=DIRECTION('center_axis',(1.,0.,0.));
#617=DIRECTION('ref_axis',(0.,1.,0.));
#618=DIRECTION('',(0.,1.,0.));
#619=DIRECTION('center_axis',(0.,0.,1.));
#620=DIRECTION('ref_axis',(1.,0.,0.));
#621=DIRECTION('',(0.,0.,1.));
#622=DIRECTION('',(1.,0.,0.));
#623=DIRECTION('',(0.,0.,1.));
#624=DIRECTION('',(1.,0.,0.));
#625=DIRECTION('',(0.,0.,1.));
#626=DIRECTION('',(1.,0.,0.));
#627=CARTESIAN_POINT('',(0.,0.,0.));
#628=CARTESIAN_POINT('',(0.,0.,0.));
#629=CARTESIAN_POINT('',(0.,0.,0.));
#630=CARTESIAN_POINT('',(0.,0.,0.));
#631=CARTESIAN_POINT('Origin',(50.,100.,229.));
#632=CARTESIAN_POINT('',(-6.6,105.,229.));
#633=CARTESIAN_POINT('Origin',(-4.,105.,229.));
#634=CARTESIAN_POINT('Origin',(50.,100.,229.));
#635=CARTESIAN_POINT('',(77.4000000000001,-3.99999999999995,229.));
#636=CARTESIAN_POINT('Origin',(80.0000000000001,-3.99999999999995,229.));
#637=CARTESIAN_POINT('Origin',(50.,100.,229.));
#638=CARTESIAN_POINT('',(77.4,204.,229.));
#639=CARTESIAN_POINT('Origin',(80.,204.,229.));
#640=CARTESIAN_POINT('Origin',(50.,100.,229.));
#641=CARTESIAN_POINT('',(17.4,204.,229.));
#642=CARTESIAN_POINT('Origin',(20.,204.,229.));
#643=CARTESIAN_POINT('Origin',(50.,100.,229.));
#644=CARTESIAN_POINT('',(17.4,-3.99999999999995,229.));
#645=CARTESIAN_POINT('Origin',(20.,-3.99999999999995,229.));
#646=CARTESIAN_POINT('Origin',(50.,100.,229.));
#647=CARTESIAN_POINT('',(101.4,105.,229.));
#648=CARTESIAN_POINT('Origin',(104.,105.,229.));
#649=CARTESIAN_POINT('Origin',(50.,100.,230.));
#650=CARTESIAN_POINT('',(105.34896192533,-5.34896192533006,230.));
#651=CARTESIAN_POINT('',(108.,0.483321838943774,230.));
#652=CARTESIAN_POINT('',(120.453307328617,27.8805979619022,230.));
#653=CARTESIAN_POINT('',(108.,199.516678161058,230.));
#654=CARTESIAN_POINT('',(108.,50.2416609194719,230.));
#655=CARTESIAN_POINT('',(105.34896192533,205.34896192533,230.));
#656=CARTESIAN_POINT('',(121.778826365954,169.203260155967,230.));
#657=CARTESIAN_POINT('',(99.5166781610562,208.,230.));
#658=CARTESIAN_POINT('',(102.256388339467,206.754677191631,230.));
#659=CARTESIAN_POINT('',(0.483321838945141,208.,230.));
#660=CARTESIAN_POINT('',(74.758339080528,208.,230.));
#661=CARTESIAN_POINT('',(-5.34896192532942,205.34896192533,230.));
#662=CARTESIAN_POINT('',(0.659753542675205,208.080196228968,230.));
#663=CARTESIAN_POINT('',(-8.00000000000001,199.516678161056,230.));
#664=CARTESIAN_POINT('',(-20.4533073286181,172.119402038103,230.));
#665=CARTESIAN_POINT('',(-8.00000000000001,0.483321838943735,230.));
#666=CARTESIAN_POINT('',(-8.,149.758339080528,230.));
#667=CARTESIAN_POINT('',(-5.34896192533008,-5.34896192533002,230.));
#668=CARTESIAN_POINT('',(-21.7788263659524,30.7967398440386,230.));
#669=CARTESIAN_POINT('',(0.483321838943791,-7.99999999999994,230.));
#670=CARTESIAN_POINT('',(-2.25638833946766,-6.75467719163111,230.));
#671=CARTESIAN_POINT('',(99.516678161057,-8.00000000000001,230.));
#672=CARTESIAN_POINT('',(25.2416609194719,-7.99999999999995,230.));
#673=CARTESIAN_POINT('',(99.3402464573342,-8.08019622896492,230.));
#674=CARTESIAN_POINT('Origin',(104.,105.,227.));
#675=CARTESIAN_POINT('',(101.4,105.,227.));
#676=CARTESIAN_POINT('',(101.4,105.,227.));
#677=CARTESIAN_POINT('Origin',(104.,105.,227.));
#678=CARTESIAN_POINT('Origin',(20.,-3.99999999999995,227.));
#679=CARTESIAN_POINT('',(17.4,-3.99999999999995,227.));
#680=CARTESIAN_POINT('',(17.4,-3.99999999999995,227.));
#681=CARTESIAN_POINT('Origin',(20.,-3.99999999999995,227.));
#682=CARTESIAN_POINT('Origin',(20.,204.,227.));
#683=CARTESIAN_POINT('',(17.4,204.,227.));
#684=CARTESIAN_POINT('',(17.4,204.,227.));
#685=CARTESIAN_POINT('Origin',(20.,204.,227.));
#686=CARTESIAN_POINT('Origin',(80.,204.,227.));
#687=CARTESIAN_POINT('',(77.4,204.,227.));
#688=CARTESIAN_POINT('',(77.4,204.,227.));
#689=CARTESIAN_POINT('Origin',(80.,204.,227.));
#690=CARTESIAN_POINT('Origin',(80.0000000000001,-3.99999999999995,227.));
#691=CARTESIAN_POINT('',(77.4000000000001,-3.99999999999995,227.));
#692=CARTESIAN_POINT('',(77.4000000000001,-3.99999999999995,227.));
#693=CARTESIAN_POINT('Origin',(80.0000000000001,-3.99999999999995,227.));
#694=CARTESIAN_POINT('Origin',(-4.,105.,227.));
#695=CARTESIAN_POINT('',(-6.6,105.,227.));
#696=CARTESIAN_POINT('',(-6.6,105.,227.));
#697=CARTESIAN_POINT('Origin',(-4.,105.,227.));
#698=CARTESIAN_POINT('Origin',(105.34896192533,-5.34896192533006,227.));
#699=CARTESIAN_POINT('',(108.,0.483321838943774,227.));
#700=CARTESIAN_POINT('',(105.34896192533,-5.34896192533006,227.));
#701=CARTESIAN_POINT('',(108.,0.483321838943774,227.));
#702=CARTESIAN_POINT('',(108.,0.483321838943774,227.));
#703=CARTESIAN_POINT('',(105.34896192533,-5.34896192533006,227.));
#704=CARTESIAN_POINT('Origin',(99.516678161057,-8.00000000000001,227.));
#705=CARTESIAN_POINT('',(99.516678161057,-8.00000000000001,227.));
#706=CARTESIAN_POINT('',(105.34896192533,-5.34896192533006,227.));
#707=CARTESIAN_POINT('',(99.516678161057,-8.00000000000001,227.));
#708=CARTESIAN_POINT('Origin',(0.483321838943791,-7.99999999999994,227.));
#709=CARTESIAN_POINT('',(0.483321838943792,-7.99999999999994,227.));
#710=CARTESIAN_POINT('',(99.516678161057,-8.00000000000001,227.));
#711=CARTESIAN_POINT('',(0.483321838943792,-7.99999999999994,227.));
#712=CARTESIAN_POINT('Origin',(-5.34896192533007,-5.34896192533002,227.));
#713=CARTESIAN_POINT('',(-5.34896192533007,-5.34896192533002,227.));
#714=CARTESIAN_POINT('',(0.483321838943792,-7.99999999999994,227.));
#715=CARTESIAN_POINT('',(-5.34896192533007,-5.34896192533002,227.));
#716=CARTESIAN_POINT('Origin',(-8.,0.483321838943735,227.));
#717=CARTESIAN_POINT('',(-8.,0.483321838943735,227.));
#718=CARTESIAN_POINT('',(-5.34896192533007,-5.34896192533002,227.));
#719=CARTESIAN_POINT('',(-8.,0.483321838943735,227.));
#720=CARTESIAN_POINT('Origin',(-8.,199.516678161056,227.));
#721=CARTESIAN_POINT('',(-8.,199.516678161056,227.));
#722=CARTESIAN_POINT('',(-8.,200.,227.));
#723=CARTESIAN_POINT('',(-8.,199.516678161056,227.));
#724=CARTESIAN_POINT('Origin',(-5.34896192532942,205.34896192533,227.));
#725=CARTESIAN_POINT('',(-5.34896192532942,205.34896192533,227.));
#726=CARTESIAN_POINT('',(-8.00000000000001,199.516678161056,227.));
#727=CARTESIAN_POINT('',(-5.34896192532942,205.34896192533,227.));
#728=CARTESIAN_POINT('Origin',(0.483321838945137,208.,227.));
#729=CARTESIAN_POINT('',(0.483321838945137,208.,227.));
#730=CARTESIAN_POINT('',(-5.34896192532942,205.34896192533,227.));
#731=CARTESIAN_POINT('',(0.483321838945137,208.,227.));
#732=CARTESIAN_POINT('Origin',(99.5166781610562,208.,227.));
#733=CARTESIAN_POINT('',(99.5166781610562,208.,227.));
#734=CARTESIAN_POINT('',(0.483321838945137,208.,227.));
#735=CARTESIAN_POINT('',(99.5166781610562,208.,227.));
#736=CARTESIAN_POINT('Origin',(105.34896192533,205.34896192533,227.));
#737=CARTESIAN_POINT('',(105.34896192533,205.34896192533,227.));
#738=CARTESIAN_POINT('',(99.5166781610562,208.,227.));
#739=CARTESIAN_POINT('',(105.34896192533,205.34896192533,227.));
#740=CARTESIAN_POINT('Origin',(108.,199.516678161058,227.));
#741=CARTESIAN_POINT('',(108.,199.516678161058,227.));
#742=CARTESIAN_POINT('',(105.34896192533,205.34896192533,227.));
#743=CARTESIAN_POINT('',(108.,199.516678161058,227.));
#744=CARTESIAN_POINT('Origin',(108.,0.483321838943774,227.));
#745=CARTESIAN_POINT('',(108.,0.,227.));
#746=CARTESIAN_POINT('Origin',(50.,100.,227.));
#747=CARTESIAN_POINT('',(0.,0.,0.));
#748=CARTESIAN_POINT('',(0.,0.,0.));
#749=CARTESIAN_POINT('',(0.,0.,0.));
#750=UNCERTAINTY_MEASURE_WITH_UNIT(LENGTH_MEASURE(0.01),#760,
'DISTANCE_ACCURACY_VALUE',
'Maximum model space distance between geometric entities at asserted c
onnectivities');
#751=UNCERTAINTY_MEASURE_WITH_UNIT(LENGTH_MEASURE(0.01),#760,
'DISTANCE_ACCURACY_VALUE',
'Maximum model space distance between geometric entities at asserted c
onnectivities');
#752=UNCERTAINTY_MEASURE_WITH_UNIT(LENGTH_MEASURE(0.01),#760,
'DISTANCE_ACCURACY_VALUE',
'Maximum model space distance between geometric entities at asserted c
onnectivities');
#753=UNCERTAINTY_MEASURE_WITH_UNIT(LENGTH_MEASURE(0.01),#760,
'DISTANCE_ACCURACY_VALUE',
'Maximum model space distance between geometric entities at asserted c
onnectivities');
#754=UNCERTAINTY_MEASURE_WITH_UNIT(LENGTH_MEASURE(0.01),#760,
'DISTANCE_ACCURACY_VALUE',
'Maximum model space distance between geometric entities at asserted c
onnectivities');
#755=(
GEOMETRIC_REPRESENTATION_CONTEXT(3)
GLOBAL_UNCERTAINTY_ASSIGNED_CONTEXT((#750))
GLOBAL_UNIT_ASSIGNED_CONTEXT((#760,#762,#763))
REPRESENTATION_CONTEXT('','3D')
);
#756=(
GEOMETRIC_REPRESENTATION_CONTEXT(3)
GLOBAL_UNCERTAINTY_ASSIGNED_CONTEXT((#751))
GLOBAL_UNIT_ASSIGNED_CONTEXT((#760,#762,#763))
REPRESENTATION_CONTEXT('','3D')
);
#757=(
GEOMETRIC_REPRESENTATION_CONTEXT(3)
GLOBAL_UNCERTAINTY_ASSIGNED_CONTEXT((#752))
GLOBAL_UNIT_ASSIGNED_CONTEXT((#760,#762,#763))
REPRESENTATION_CONTEXT('','3D')
);
#758=(
GEOMETRIC_REPRESENTATION_CONTEXT(3)
GLOBAL_UNCERTAINTY_ASSIGNED_CONTEXT((#753))
GLOBAL_UNIT_ASSIGNED_CONTEXT((#760,#762,#763))
REPRESENTATION_CONTEXT('','3D')
);
#759=(
GEOMETRIC_REPRESENTATION_CONTEXT(3)
GLOBAL_UNCERTAINTY_ASSIGNED_CONTEXT((#754))
GLOBAL_UNIT_ASSIGNED_CONTEXT((#760,#762,#763))
REPRESENTATION_CONTEXT('','3D')
);
#760=(
LENGTH_UNIT()
NAMED_UNIT(*)
SI_UNIT(.MILLI.,.METRE.)
);
#761=(
LENGTH_UNIT()
NAMED_UNIT(*)
SI_UNIT($,.METRE.)
);
#762=(
NAMED_UNIT(*)
PLANE_ANGLE_UNIT()
SI_UNIT($,.RADIAN.)
);
#763=(
NAMED_UNIT(*)
SI_UNIT($,.STERADIAN.)
SOLID_ANGLE_UNIT()
);
#764=SHAPE_DEFINITION_REPRESENTATION(#768,#775);
#765=SHAPE_DEFINITION_REPRESENTATION(#769,#776);
#766=SHAPE_DEFINITION_REPRESENTATION(#770,#777);
#767=SHAPE_DEFINITION_REPRESENTATION(#771,#778);
#768=PRODUCT_DEFINITION_SHAPE('',$,#780);
#769=PRODUCT_DEFINITION_SHAPE('',$,#781);
#770=PRODUCT_DEFINITION_SHAPE('',$,#782);
#771=PRODUCT_DEFINITION_SHAPE('',$,#783);
#772=PRODUCT_DEFINITION_SHAPE($,$,#20);
#773=PRODUCT_DEFINITION_SHAPE($,$,#21);
#774=PRODUCT_DEFINITION_SHAPE($,$,#22);
#775=SHAPE_REPRESENTATION('',(#450,#494),#755);
#776=SHAPE_REPRESENTATION('',(#451,#493),#756);
#777=SHAPE_REPRESENTATION('',(#452,#492),#757);
#778=SHAPE_REPRESENTATION('',(#453),#758);
#779=PRODUCT_DEFINITION_CONTEXT('part definition',#793,'design');
#780=PRODUCT_DEFINITION('SlotCrate','SlotCrate v114',#784,#779);
#781=PRODUCT_DEFINITION('SlotCrate-124','SlotCrate-124',#785,#779);
#782=PRODUCT_DEFINITION('Slotcar_Modul_124','Slotcar_Modul_124',#786,#779);
#783=PRODUCT_DEFINITION('Cover_SM','Cover_SM',#787,#779);
#784=PRODUCT_DEFINITION_FORMATION('',$,#795);
#785=PRODUCT_DEFINITION_FORMATION('',$,#796);
#786=PRODUCT_DEFINITION_FORMATION('',$,#797);
#787=PRODUCT_DEFINITION_FORMATION('',$,#798);
#788=PRODUCT_RELATED_PRODUCT_CATEGORY('SlotCrate v114','SlotCrate v114',
(#795));
#789=PRODUCT_RELATED_PRODUCT_CATEGORY('SlotCrate-124','SlotCrate-124',(#796));
#790=PRODUCT_RELATED_PRODUCT_CATEGORY('Slotcar_Modul_124',
'Slotcar_Modul_124',(#797));
#791=PRODUCT_RELATED_PRODUCT_CATEGORY('Cover_SM','Cover_SM',(#798));
#792=APPLICATION_PROTOCOL_DEFINITION('international standard',
'automotive_design',2009,#793);
#793=APPLICATION_CONTEXT(
'Core Data for Automotive Mechanical Design Process');
#794=PRODUCT_CONTEXT('part definition',#793,'mechanical');
#795=PRODUCT('SlotCrate','SlotCrate v114',$,(#794));
#796=PRODUCT('SlotCrate-124','SlotCrate-124',$,(#794));
#797=PRODUCT('Slotcar_Modul_124','Slotcar_Modul_124',$,(#794));
#798=PRODUCT('Cover_SM','Cover_SM',$,(#794));
#799=PRESENTATION_STYLE_ASSIGNMENT((#802));
#800=PRESENTATION_STYLE_ASSIGNMENT((#803));
#801=PRESENTATION_STYLE_ASSIGNMENT((#804));
#802=SURFACE_STYLE_USAGE(.BOTH.,#805);
#803=SURFACE_STYLE_USAGE(.BOTH.,#806);
#804=SURFACE_STYLE_USAGE(.BOTH.,#807);
#805=SURFACE_SIDE_STYLE('',(#808));
#806=SURFACE_SIDE_STYLE('',(#809));
#807=SURFACE_SIDE_STYLE('',(#810));
#808=SURFACE_STYLE_FILL_AREA(#811);
#809=SURFACE_STYLE_FILL_AREA(#812);
#810=SURFACE_STYLE_FILL_AREA(#813);
#811=FILL_AREA_STYLE('ABS (Wei\X\DF)',(#814));
#812=FILL_AREA_STYLE('Kunststoff - matt (Schwarz)',(#815));
#813=FILL_AREA_STYLE('Kunststoff - matt (Gr\X\FCn)',(#816));
#814=FILL_AREA_STYLE_COLOUR('ABS (Wei\X\DF)',#817);
#815=FILL_AREA_STYLE_COLOUR('Kunststoff - matt (Schwarz)',#818);
#816=FILL_AREA_STYLE_COLOUR('Kunststoff - matt (Gr\X\FCn)',#819);
#817=COLOUR_RGB('ABS (Wei\X\DF)',0.964705882352941,0.964705882352941,0.952941176470588);
#818=COLOUR_RGB('Kunststoff - matt (Schwarz)',0.0980392156862745,0.0980392156862745,
0.0980392156862745);
#819=COLOUR_RGB('Kunststoff - matt (Gr\X\FCn)',0.266666666666667,0.588235294117647,
0.282352941176471);
ENDSEC;
END-ISO-10303-21;
