ISO-10303-21;
HEADER;
/* Generated by software containing ST-Developer
 * from STEP Tools, Inc. (www.steptools.com) 
 */

FILE_DESCRIPTION(
/* description */ (''),
/* implementation_level */ '2;1');

FILE_NAME(
/* name */ 'SlotCrate_1x1.step',
/* time_stamp */ '2026-09-04T21:02:35+02:00',
/* author */ (''),
/* organization */ (''),
/* preprocessor_version */ 'ST-DEVELOPER v20.1',
/* originating_system */ 'Autodesk Translation Framework v15.8.0.0',
/* authorisation */ '');

FILE_SCHEMA (('AUTOMOTIVE_DESIGN { 1 0 10303 214 3 1 1 }'));
ENDSEC;

DATA;
#10=MECHANICAL_DESIGN_GEOMETRIC_PRESENTATION_REPRESENTATION('',(#13),#1217);
#11=SHAPE_REPRESENTATION_RELATIONSHIP('SRR','None',#1252,#12);
#12=ADVANCED_BREP_SHAPE_REPRESENTATION('',(#14),#1216);
#13=STYLED_ITEM('',(#1289),#14);
#14=MANIFOLD_SOLID_BREP('SC_TM_40mm_SoS_1x1_SortingTray',#679);
#15=ELLIPSE('',#768,3.53553390593271,2.5);
#16=ELLIPSE('',#769,3.53553390593274,2.5);
#17=ELLIPSE('',#771,3.53553390593274,2.5);
#18=ELLIPSE('',#773,3.53553390593271,2.5);
#19=CYLINDRICAL_SURFACE('',#765,6.327);
#20=CYLINDRICAL_SURFACE('',#767,2.5);
#21=CYLINDRICAL_SURFACE('',#770,2.5);
#22=CYLINDRICAL_SURFACE('',#772,2.5);
#23=CYLINDRICAL_SURFACE('',#774,2.5);
#24=CONICAL_SURFACE('',#763,6.82700000000001,0.785398163397465);
#25=CIRCLE('',#762,7.32700000000001);
#26=CIRCLE('',#764,6.327);
#27=CIRCLE('',#766,6.327);
#28=FACE_BOUND('',#80,.T.);
#29=FACE_BOUND('',#94,.T.);
#30=FACE_BOUND('',#107,.T.);
#31=FACE_OUTER_BOUND('',#71,.T.);
#32=FACE_OUTER_BOUND('',#72,.T.);
#33=FACE_OUTER_BOUND('',#73,.T.);
#34=FACE_OUTER_BOUND('',#74,.T.);
#35=FACE_OUTER_BOUND('',#75,.T.);
#36=FACE_OUTER_BOUND('',#76,.T.);
#37=FACE_OUTER_BOUND('',#77,.T.);
#38=FACE_OUTER_BOUND('',#78,.T.);
#39=FACE_OUTER_BOUND('',#79,.T.);
#40=FACE_OUTER_BOUND('',#81,.T.);
#41=FACE_OUTER_BOUND('',#82,.T.);
#42=FACE_OUTER_BOUND('',#83,.T.);
#43=FACE_OUTER_BOUND('',#84,.T.);
#44=FACE_OUTER_BOUND('',#85,.T.);
#45=FACE_OUTER_BOUND('',#86,.T.);
#46=FACE_OUTER_BOUND('',#87,.T.);
#47=FACE_OUTER_BOUND('',#88,.T.);
#48=FACE_OUTER_BOUND('',#89,.T.);
#49=FACE_OUTER_BOUND('',#90,.T.);
#50=FACE_OUTER_BOUND('',#91,.T.);
#51=FACE_OUTER_BOUND('',#92,.T.);
#52=FACE_OUTER_BOUND('',#93,.T.);
#53=FACE_OUTER_BOUND('',#95,.T.);
#54=FACE_OUTER_BOUND('',#96,.T.);
#55=FACE_OUTER_BOUND('',#97,.T.);
#56=FACE_OUTER_BOUND('',#98,.T.);
#57=FACE_OUTER_BOUND('',#99,.T.);
#58=FACE_OUTER_BOUND('',#100,.T.);
#59=FACE_OUTER_BOUND('',#101,.T.);
#60=FACE_OUTER_BOUND('',#102,.T.);
#61=FACE_OUTER_BOUND('',#103,.T.);
#62=FACE_OUTER_BOUND('',#104,.T.);
#63=FACE_OUTER_BOUND('',#105,.T.);
#64=FACE_OUTER_BOUND('',#106,.T.);
#65=FACE_OUTER_BOUND('',#108,.T.);
#66=FACE_OUTER_BOUND('',#109,.T.);
#67=FACE_OUTER_BOUND('',#110,.T.);
#68=FACE_OUTER_BOUND('',#111,.T.);
#69=FACE_OUTER_BOUND('',#112,.T.);
#70=FACE_OUTER_BOUND('',#113,.T.);
#71=EDGE_LOOP('',(#425,#426,#427,#428,#429,#430));
#72=EDGE_LOOP('',(#431,#432,#433,#434,#435));
#73=EDGE_LOOP('',(#436,#437,#438,#439,#440));
#74=EDGE_LOOP('',(#441,#442,#443,#444));
#75=EDGE_LOOP('',(#445,#446,#447,#448,#449));
#76=EDGE_LOOP('',(#450,#451,#452,#453));
#77=EDGE_LOOP('',(#454,#455,#456,#457,#458));
#78=EDGE_LOOP('',(#459,#460,#461,#462));
#79=EDGE_LOOP('',(#463,#464,#465,#466));
#80=EDGE_LOOP('',(#467,#468,#469,#470,#471,#472,#473,#474));
#81=EDGE_LOOP('',(#475,#476,#477,#478));
#82=EDGE_LOOP('',(#479,#480,#481,#482));
#83=EDGE_LOOP('',(#483,#484,#485,#486));
#84=EDGE_LOOP('',(#487,#488,#489,#490));
#85=EDGE_LOOP('',(#491,#492,#493,#494));
#86=EDGE_LOOP('',(#495,#496,#497,#498));
#87=EDGE_LOOP('',(#499,#500,#501,#502));
#88=EDGE_LOOP('',(#503,#504,#505,#506));
#89=EDGE_LOOP('',(#507,#508,#509,#510));
#90=EDGE_LOOP('',(#511,#512,#513,#514));
#91=EDGE_LOOP('',(#515,#516,#517,#518));
#92=EDGE_LOOP('',(#519,#520,#521,#522));
#93=EDGE_LOOP('',(#523,#524,#525,#526,#527,#528,#529,#530));
#94=EDGE_LOOP('',(#531));
#95=EDGE_LOOP('',(#532,#533,#534,#535));
#96=EDGE_LOOP('',(#536,#537,#538,#539));
#97=EDGE_LOOP('',(#540,#541,#542,#543));
#98=EDGE_LOOP('',(#544,#545,#546,#547));
#99=EDGE_LOOP('',(#548,#549,#550,#551));
#100=EDGE_LOOP('',(#552,#553,#554,#555));
#101=EDGE_LOOP('',(#556,#557,#558,#559));
#102=EDGE_LOOP('',(#560,#561,#562,#563));
#103=EDGE_LOOP('',(#564,#565,#566,#567));
#104=EDGE_LOOP('',(#568,#569,#570,#571));
#105=EDGE_LOOP('',(#572,#573,#574,#575));
#106=EDGE_LOOP('',(#576,#577,#578,#579));
#107=EDGE_LOOP('',(#580,#581,#582,#583));
#108=EDGE_LOOP('',(#584));
#109=EDGE_LOOP('',(#585,#586,#587,#588));
#110=EDGE_LOOP('',(#589,#590,#591,#592));
#111=EDGE_LOOP('',(#593,#594,#595,#596));
#112=EDGE_LOOP('',(#597,#598,#599,#600));
#113=EDGE_LOOP('',(#601,#602,#603,#604));
#114=LINE('',#1012,#197);
#115=LINE('',#1014,#198);
#116=LINE('',#1016,#199);
#117=LINE('',#1018,#200);
#118=LINE('',#1020,#201);
#119=LINE('',#1021,#202);
#120=LINE('',#1024,#203);
#121=LINE('',#1026,#204);
#122=LINE('',#1028,#205);
#123=LINE('',#1029,#206);
#124=LINE('',#1032,#207);
#125=LINE('',#1034,#208);
#126=LINE('',#1035,#209);
#127=LINE('',#1038,#210);
#128=LINE('',#1039,#211);
#129=LINE('',#1042,#212);
#130=LINE('',#1044,#213);
#131=LINE('',#1045,#214);
#132=LINE('',#1047,#215);
#133=LINE('',#1048,#216);
#134=LINE('',#1051,#217);
#135=LINE('',#1053,#218);
#136=LINE('',#1054,#219);
#137=LINE('',#1056,#220);
#138=LINE('',#1060,#221);
#139=LINE('',#1062,#222);
#140=LINE('',#1064,#223);
#141=LINE('',#1066,#224);
#142=LINE('',#1068,#225);
#143=LINE('',#1070,#226);
#144=LINE('',#1072,#227);
#145=LINE('',#1073,#228);
#146=LINE('',#1077,#229);
#147=LINE('',#1079,#230);
#148=LINE('',#1081,#231);
#149=LINE('',#1082,#232);
#150=LINE('',#1085,#233);
#151=LINE('',#1087,#234);
#152=LINE('',#1088,#235);
#153=LINE('',#1092,#236);
#154=LINE('',#1094,#237);
#155=LINE('',#1096,#238);
#156=LINE('',#1097,#239);
#157=LINE('',#1099,#240);
#158=LINE('',#1100,#241);
#159=LINE('',#1103,#242);
#160=LINE('',#1105,#243);
#161=LINE('',#1106,#244);
#162=LINE('',#1109,#245);
#163=LINE('',#1111,#246);
#164=LINE('',#1112,#247);
#165=LINE('',#1115,#248);
#166=LINE('',#1117,#249);
#167=LINE('',#1118,#250);
#168=LINE('',#1120,#251);
#169=LINE('',#1121,#252);
#170=LINE('',#1123,#253);
#171=LINE('',#1124,#254);
#172=LINE('',#1126,#255);
#173=LINE('',#1128,#256);
#174=LINE('',#1130,#257);
#175=LINE('',#1137,#258);
#176=LINE('',#1141,#259);
#177=LINE('',#1145,#260);
#178=LINE('',#1149,#261);
#179=LINE('',#1153,#262);
#180=LINE('',#1155,#263);
#181=LINE('',#1159,#264);
#182=LINE('',#1161,#265);
#183=LINE('',#1164,#266);
#184=LINE('',#1165,#267);
#185=LINE('',#1168,#268);
#186=LINE('',#1170,#269);
#187=LINE('',#1171,#270);
#188=LINE('',#1174,#271);
#189=LINE('',#1175,#272);
#190=LINE('',#1179,#273);
#191=LINE('',#1180,#274);
#192=LINE('',#1182,#275);
#193=LINE('',#1184,#276);
#194=LINE('',#1188,#277);
#195=LINE('',#1189,#278);
#196=LINE('',#1191,#279);
#197=VECTOR('',#813,10.);
#198=VECTOR('',#814,10.);
#199=VECTOR('',#815,10.);
#200=VECTOR('',#816,10.);
#201=VECTOR('',#817,10.);
#202=VECTOR('',#818,10.);
#203=VECTOR('',#821,10.);
#204=VECTOR('',#822,10.);
#205=VECTOR('',#823,10.);
#206=VECTOR('',#824,10.);
#207=VECTOR('',#827,10.);
#208=VECTOR('',#828,10.);
#209=VECTOR('',#829,10.);
#210=VECTOR('',#832,10.);
#211=VECTOR('',#833,10.);
#212=VECTOR('',#836,10.);
#213=VECTOR('',#837,10.);
#214=VECTOR('',#838,10.);
#215=VECTOR('',#841,10.);
#216=VECTOR('',#842,10.);
#217=VECTOR('',#845,10.);
#218=VECTOR('',#846,10.);
#219=VECTOR('',#847,10.);
#220=VECTOR('',#850,10.);
#221=VECTOR('',#853,10.);
#222=VECTOR('',#854,10.);
#223=VECTOR('',#855,10.);
#224=VECTOR('',#856,10.);
#225=VECTOR('',#857,10.);
#226=VECTOR('',#858,10.);
#227=VECTOR('',#859,10.);
#228=VECTOR('',#860,10.);
#229=VECTOR('',#863,10.);
#230=VECTOR('',#864,10.);
#231=VECTOR('',#865,10.);
#232=VECTOR('',#866,10.);
#233=VECTOR('',#869,10.);
#234=VECTOR('',#870,10.);
#235=VECTOR('',#871,10.);
#236=VECTOR('',#874,10.);
#237=VECTOR('',#875,10.);
#238=VECTOR('',#876,10.);
#239=VECTOR('',#877,10.);
#240=VECTOR('',#880,10.);
#241=VECTOR('',#881,10.);
#242=VECTOR('',#884,10.);
#243=VECTOR('',#885,10.);
#244=VECTOR('',#886,10.);
#245=VECTOR('',#889,10.);
#246=VECTOR('',#890,10.);
#247=VECTOR('',#891,10.);
#248=VECTOR('',#894,10.);
#249=VECTOR('',#895,10.);
#250=VECTOR('',#896,10.);
#251=VECTOR('',#899,10.);
#252=VECTOR('',#900,10.);
#253=VECTOR('',#903,10.);
#254=VECTOR('',#904,10.);
#255=VECTOR('',#907,10.);
#256=VECTOR('',#910,10.);
#257=VECTOR('',#913,10.);
#258=VECTOR('',#922,6.82700000000019);
#259=VECTOR('',#927,6.327);
#260=VECTOR('',#930,10.);
#261=VECTOR('',#933,10.);
#262=VECTOR('',#938,10.);
#263=VECTOR('',#939,10.);
#264=VECTOR('',#944,10.);
#265=VECTOR('',#945,10.);
#266=VECTOR('',#950,10.);
#267=VECTOR('',#951,10.);
#268=VECTOR('',#954,10.);
#269=VECTOR('',#955,10.);
#270=VECTOR('',#956,10.);
#271=VECTOR('',#959,10.);
#272=VECTOR('',#960,10.);
#273=VECTOR('',#965,10.);
#274=VECTOR('',#966,10.);
#275=VECTOR('',#969,10.);
#276=VECTOR('',#972,10.);
#277=VECTOR('',#979,10.);
#278=VECTOR('',#980,10.);
#279=VECTOR('',#983,10.);
#280=VERTEX_POINT('',#1010);
#281=VERTEX_POINT('',#1011);
#282=VERTEX_POINT('',#1013);
#283=VERTEX_POINT('',#1015);
#284=VERTEX_POINT('',#1017);
#285=VERTEX_POINT('',#1019);
#286=VERTEX_POINT('',#1023);
#287=VERTEX_POINT('',#1025);
#288=VERTEX_POINT('',#1027);
#289=VERTEX_POINT('',#1031);
#290=VERTEX_POINT('',#1033);
#291=VERTEX_POINT('',#1037);
#292=VERTEX_POINT('',#1041);
#293=VERTEX_POINT('',#1043);
#294=VERTEX_POINT('',#1050);
#295=VERTEX_POINT('',#1052);
#296=VERTEX_POINT('',#1058);
#297=VERTEX_POINT('',#1059);
#298=VERTEX_POINT('',#1061);
#299=VERTEX_POINT('',#1063);
#300=VERTEX_POINT('',#1065);
#301=VERTEX_POINT('',#1067);
#302=VERTEX_POINT('',#1069);
#303=VERTEX_POINT('',#1071);
#304=VERTEX_POINT('',#1075);
#305=VERTEX_POINT('',#1076);
#306=VERTEX_POINT('',#1078);
#307=VERTEX_POINT('',#1080);
#308=VERTEX_POINT('',#1084);
#309=VERTEX_POINT('',#1086);
#310=VERTEX_POINT('',#1090);
#311=VERTEX_POINT('',#1091);
#312=VERTEX_POINT('',#1093);
#313=VERTEX_POINT('',#1095);
#314=VERTEX_POINT('',#1102);
#315=VERTEX_POINT('',#1104);
#316=VERTEX_POINT('',#1108);
#317=VERTEX_POINT('',#1110);
#318=VERTEX_POINT('',#1114);
#319=VERTEX_POINT('',#1116);
#320=VERTEX_POINT('',#1132);
#321=VERTEX_POINT('',#1135);
#322=VERTEX_POINT('',#1139);
#323=VERTEX_POINT('',#1143);
#324=VERTEX_POINT('',#1144);
#325=VERTEX_POINT('',#1146);
#326=VERTEX_POINT('',#1148);
#327=VERTEX_POINT('',#1152);
#328=VERTEX_POINT('',#1154);
#329=VERTEX_POINT('',#1158);
#330=VERTEX_POINT('',#1160);
#331=VERTEX_POINT('',#1167);
#332=VERTEX_POINT('',#1169);
#333=VERTEX_POINT('',#1173);
#334=VERTEX_POINT('',#1178);
#335=EDGE_CURVE('',#280,#281,#114,.T.);
#336=EDGE_CURVE('',#281,#282,#115,.T.);
#337=EDGE_CURVE('',#282,#283,#116,.T.);
#338=EDGE_CURVE('',#283,#284,#117,.T.);
#339=EDGE_CURVE('',#284,#285,#118,.T.);
#340=EDGE_CURVE('',#285,#280,#119,.T.);
#341=EDGE_CURVE('',#286,#283,#120,.T.);
#342=EDGE_CURVE('',#286,#287,#121,.T.);
#343=EDGE_CURVE('',#287,#288,#122,.F.);
#344=EDGE_CURVE('',#284,#288,#123,.T.);
#345=EDGE_CURVE('',#289,#282,#124,.T.);
#346=EDGE_CURVE('',#289,#290,#125,.T.);
#347=EDGE_CURVE('',#290,#286,#126,.T.);
#348=EDGE_CURVE('',#291,#281,#127,.T.);
#349=EDGE_CURVE('',#291,#289,#128,.T.);
#350=EDGE_CURVE('',#280,#292,#129,.T.);
#351=EDGE_CURVE('',#292,#293,#130,.T.);
#352=EDGE_CURVE('',#293,#291,#131,.T.);
#353=EDGE_CURVE('',#290,#293,#132,.T.);
#354=EDGE_CURVE('',#292,#286,#133,.T.);
#355=EDGE_CURVE('',#285,#294,#134,.T.);
#356=EDGE_CURVE('',#294,#295,#135,.F.);
#357=EDGE_CURVE('',#292,#295,#136,.T.);
#358=EDGE_CURVE('',#288,#294,#137,.F.);
#359=EDGE_CURVE('',#296,#297,#138,.T.);
#360=EDGE_CURVE('',#298,#296,#139,.T.);
#361=EDGE_CURVE('',#299,#298,#140,.T.);
#362=EDGE_CURVE('',#300,#299,#141,.T.);
#363=EDGE_CURVE('',#301,#300,#142,.T.);
#364=EDGE_CURVE('',#302,#301,#143,.T.);
#365=EDGE_CURVE('',#303,#302,#144,.T.);
#366=EDGE_CURVE('',#297,#303,#145,.T.);
#367=EDGE_CURVE('',#304,#305,#146,.T.);
#368=EDGE_CURVE('',#305,#306,#147,.T.);
#369=EDGE_CURVE('',#306,#307,#148,.T.);
#370=EDGE_CURVE('',#304,#307,#149,.T.);
#371=EDGE_CURVE('',#305,#308,#150,.T.);
#372=EDGE_CURVE('',#308,#309,#151,.T.);
#373=EDGE_CURVE('',#309,#306,#152,.T.);
#374=EDGE_CURVE('',#310,#311,#153,.T.);
#375=EDGE_CURVE('',#311,#312,#154,.T.);
#376=EDGE_CURVE('',#312,#313,#155,.T.);
#377=EDGE_CURVE('',#313,#310,#156,.T.);
#378=EDGE_CURVE('',#308,#312,#157,.T.);
#379=EDGE_CURVE('',#311,#309,#158,.T.);
#380=EDGE_CURVE('',#314,#310,#159,.T.);
#381=EDGE_CURVE('',#313,#315,#160,.T.);
#382=EDGE_CURVE('',#315,#314,#161,.T.);
#383=EDGE_CURVE('',#316,#314,#162,.T.);
#384=EDGE_CURVE('',#315,#317,#163,.T.);
#385=EDGE_CURVE('',#317,#316,#164,.T.);
#386=EDGE_CURVE('',#318,#316,#165,.T.);
#387=EDGE_CURVE('',#317,#319,#166,.T.);
#388=EDGE_CURVE('',#319,#318,#167,.T.);
#389=EDGE_CURVE('',#307,#318,#168,.T.);
#390=EDGE_CURVE('',#319,#304,#169,.T.);
#391=EDGE_CURVE('',#306,#299,#170,.T.);
#392=EDGE_CURVE('',#307,#298,#171,.T.);
#393=EDGE_CURVE('',#309,#300,#172,.T.);
#394=EDGE_CURVE('',#311,#301,#173,.T.);
#395=EDGE_CURVE('',#310,#302,#174,.T.);
#396=EDGE_CURVE('',#320,#320,#25,.T.);
#397=EDGE_CURVE('',#321,#321,#26,.T.);
#398=EDGE_CURVE('',#321,#320,#175,.T.);
#399=EDGE_CURVE('',#322,#322,#27,.T.);
#400=EDGE_CURVE('',#322,#321,#176,.T.);
#401=EDGE_CURVE('',#323,#324,#177,.T.);
#402=EDGE_CURVE('',#324,#325,#15,.T.);
#403=EDGE_CURVE('',#325,#326,#178,.T.);
#404=EDGE_CURVE('',#326,#323,#16,.T.);
#405=EDGE_CURVE('',#327,#325,#179,.T.);
#406=EDGE_CURVE('',#324,#328,#180,.T.);
#407=EDGE_CURVE('',#327,#328,#17,.T.);
#408=EDGE_CURVE('',#329,#323,#181,.T.);
#409=EDGE_CURVE('',#326,#330,#182,.T.);
#410=EDGE_CURVE('',#330,#329,#18,.T.);
#411=EDGE_CURVE('',#328,#329,#183,.T.);
#412=EDGE_CURVE('',#330,#327,#184,.T.);
#413=EDGE_CURVE('',#326,#331,#185,.T.);
#414=EDGE_CURVE('',#331,#332,#186,.F.);
#415=EDGE_CURVE('',#330,#332,#187,.T.);
#416=EDGE_CURVE('',#325,#333,#188,.T.);
#417=EDGE_CURVE('',#333,#331,#189,.F.);
#418=EDGE_CURVE('',#332,#334,#190,.F.);
#419=EDGE_CURVE('',#327,#334,#191,.T.);
#420=EDGE_CURVE('',#334,#333,#192,.F.);
#421=EDGE_CURVE('',#295,#287,#193,.F.);
#422=EDGE_CURVE('',#318,#296,#194,.T.);
#423=EDGE_CURVE('',#316,#297,#195,.T.);
#424=EDGE_CURVE('',#314,#303,#196,.T.);
#425=ORIENTED_EDGE('',*,*,#335,.T.);
#426=ORIENTED_EDGE('',*,*,#336,.T.);
#427=ORIENTED_EDGE('',*,*,#337,.T.);
#428=ORIENTED_EDGE('',*,*,#338,.T.);
#429=ORIENTED_EDGE('',*,*,#339,.T.);
#430=ORIENTED_EDGE('',*,*,#340,.T.);
#431=ORIENTED_EDGE('',*,*,#338,.F.);
#432=ORIENTED_EDGE('',*,*,#341,.F.);
#433=ORIENTED_EDGE('',*,*,#342,.T.);
#434=ORIENTED_EDGE('',*,*,#343,.T.);
#435=ORIENTED_EDGE('',*,*,#344,.F.);
#436=ORIENTED_EDGE('',*,*,#337,.F.);
#437=ORIENTED_EDGE('',*,*,#345,.F.);
#438=ORIENTED_EDGE('',*,*,#346,.T.);
#439=ORIENTED_EDGE('',*,*,#347,.T.);
#440=ORIENTED_EDGE('',*,*,#341,.T.);
#441=ORIENTED_EDGE('',*,*,#336,.F.);
#442=ORIENTED_EDGE('',*,*,#348,.F.);
#443=ORIENTED_EDGE('',*,*,#349,.T.);
#444=ORIENTED_EDGE('',*,*,#345,.T.);
#445=ORIENTED_EDGE('',*,*,#335,.F.);
#446=ORIENTED_EDGE('',*,*,#350,.T.);
#447=ORIENTED_EDGE('',*,*,#351,.T.);
#448=ORIENTED_EDGE('',*,*,#352,.T.);
#449=ORIENTED_EDGE('',*,*,#348,.T.);
#450=ORIENTED_EDGE('',*,*,#353,.T.);
#451=ORIENTED_EDGE('',*,*,#351,.F.);
#452=ORIENTED_EDGE('',*,*,#354,.T.);
#453=ORIENTED_EDGE('',*,*,#347,.F.);
#454=ORIENTED_EDGE('',*,*,#340,.F.);
#455=ORIENTED_EDGE('',*,*,#355,.T.);
#456=ORIENTED_EDGE('',*,*,#356,.T.);
#457=ORIENTED_EDGE('',*,*,#357,.F.);
#458=ORIENTED_EDGE('',*,*,#350,.F.);
#459=ORIENTED_EDGE('',*,*,#339,.F.);
#460=ORIENTED_EDGE('',*,*,#344,.T.);
#461=ORIENTED_EDGE('',*,*,#358,.T.);
#462=ORIENTED_EDGE('',*,*,#355,.F.);
#463=ORIENTED_EDGE('',*,*,#349,.F.);
#464=ORIENTED_EDGE('',*,*,#352,.F.);
#465=ORIENTED_EDGE('',*,*,#353,.F.);
#466=ORIENTED_EDGE('',*,*,#346,.F.);
#467=ORIENTED_EDGE('',*,*,#359,.F.);
#468=ORIENTED_EDGE('',*,*,#360,.F.);
#469=ORIENTED_EDGE('',*,*,#361,.F.);
#470=ORIENTED_EDGE('',*,*,#362,.F.);
#471=ORIENTED_EDGE('',*,*,#363,.F.);
#472=ORIENTED_EDGE('',*,*,#364,.F.);
#473=ORIENTED_EDGE('',*,*,#365,.F.);
#474=ORIENTED_EDGE('',*,*,#366,.F.);
#475=ORIENTED_EDGE('',*,*,#367,.T.);
#476=ORIENTED_EDGE('',*,*,#368,.T.);
#477=ORIENTED_EDGE('',*,*,#369,.T.);
#478=ORIENTED_EDGE('',*,*,#370,.F.);
#479=ORIENTED_EDGE('',*,*,#371,.T.);
#480=ORIENTED_EDGE('',*,*,#372,.T.);
#481=ORIENTED_EDGE('',*,*,#373,.T.);
#482=ORIENTED_EDGE('',*,*,#368,.F.);
#483=ORIENTED_EDGE('',*,*,#374,.T.);
#484=ORIENTED_EDGE('',*,*,#375,.T.);
#485=ORIENTED_EDGE('',*,*,#376,.T.);
#486=ORIENTED_EDGE('',*,*,#377,.T.);
#487=ORIENTED_EDGE('',*,*,#378,.T.);
#488=ORIENTED_EDGE('',*,*,#375,.F.);
#489=ORIENTED_EDGE('',*,*,#379,.T.);
#490=ORIENTED_EDGE('',*,*,#372,.F.);
#491=ORIENTED_EDGE('',*,*,#380,.T.);
#492=ORIENTED_EDGE('',*,*,#377,.F.);
#493=ORIENTED_EDGE('',*,*,#381,.T.);
#494=ORIENTED_EDGE('',*,*,#382,.T.);
#495=ORIENTED_EDGE('',*,*,#383,.T.);
#496=ORIENTED_EDGE('',*,*,#382,.F.);
#497=ORIENTED_EDGE('',*,*,#384,.T.);
#498=ORIENTED_EDGE('',*,*,#385,.T.);
#499=ORIENTED_EDGE('',*,*,#386,.T.);
#500=ORIENTED_EDGE('',*,*,#385,.F.);
#501=ORIENTED_EDGE('',*,*,#387,.T.);
#502=ORIENTED_EDGE('',*,*,#388,.T.);
#503=ORIENTED_EDGE('',*,*,#389,.T.);
#504=ORIENTED_EDGE('',*,*,#388,.F.);
#505=ORIENTED_EDGE('',*,*,#390,.T.);
#506=ORIENTED_EDGE('',*,*,#370,.T.);
#507=ORIENTED_EDGE('',*,*,#369,.F.);
#508=ORIENTED_EDGE('',*,*,#391,.T.);
#509=ORIENTED_EDGE('',*,*,#361,.T.);
#510=ORIENTED_EDGE('',*,*,#392,.F.);
#511=ORIENTED_EDGE('',*,*,#373,.F.);
#512=ORIENTED_EDGE('',*,*,#393,.T.);
#513=ORIENTED_EDGE('',*,*,#362,.T.);
#514=ORIENTED_EDGE('',*,*,#391,.F.);
#515=ORIENTED_EDGE('',*,*,#379,.F.);
#516=ORIENTED_EDGE('',*,*,#394,.T.);
#517=ORIENTED_EDGE('',*,*,#363,.T.);
#518=ORIENTED_EDGE('',*,*,#393,.F.);
#519=ORIENTED_EDGE('',*,*,#374,.F.);
#520=ORIENTED_EDGE('',*,*,#395,.T.);
#521=ORIENTED_EDGE('',*,*,#364,.T.);
#522=ORIENTED_EDGE('',*,*,#394,.F.);
#523=ORIENTED_EDGE('',*,*,#376,.F.);
#524=ORIENTED_EDGE('',*,*,#378,.F.);
#525=ORIENTED_EDGE('',*,*,#371,.F.);
#526=ORIENTED_EDGE('',*,*,#367,.F.);
#527=ORIENTED_EDGE('',*,*,#390,.F.);
#528=ORIENTED_EDGE('',*,*,#387,.F.);
#529=ORIENTED_EDGE('',*,*,#384,.F.);
#530=ORIENTED_EDGE('',*,*,#381,.F.);
#531=ORIENTED_EDGE('',*,*,#396,.F.);
#532=ORIENTED_EDGE('',*,*,#397,.T.);
#533=ORIENTED_EDGE('',*,*,#398,.T.);
#534=ORIENTED_EDGE('',*,*,#396,.T.);
#535=ORIENTED_EDGE('',*,*,#398,.F.);
#536=ORIENTED_EDGE('',*,*,#399,.T.);
#537=ORIENTED_EDGE('',*,*,#400,.T.);
#538=ORIENTED_EDGE('',*,*,#397,.F.);
#539=ORIENTED_EDGE('',*,*,#400,.F.);
#540=ORIENTED_EDGE('',*,*,#401,.T.);
#541=ORIENTED_EDGE('',*,*,#402,.T.);
#542=ORIENTED_EDGE('',*,*,#403,.T.);
#543=ORIENTED_EDGE('',*,*,#404,.T.);
#544=ORIENTED_EDGE('',*,*,#405,.T.);
#545=ORIENTED_EDGE('',*,*,#402,.F.);
#546=ORIENTED_EDGE('',*,*,#406,.T.);
#547=ORIENTED_EDGE('',*,*,#407,.F.);
#548=ORIENTED_EDGE('',*,*,#408,.T.);
#549=ORIENTED_EDGE('',*,*,#404,.F.);
#550=ORIENTED_EDGE('',*,*,#409,.T.);
#551=ORIENTED_EDGE('',*,*,#410,.T.);
#552=ORIENTED_EDGE('',*,*,#411,.T.);
#553=ORIENTED_EDGE('',*,*,#410,.F.);
#554=ORIENTED_EDGE('',*,*,#412,.T.);
#555=ORIENTED_EDGE('',*,*,#407,.T.);
#556=ORIENTED_EDGE('',*,*,#409,.F.);
#557=ORIENTED_EDGE('',*,*,#413,.T.);
#558=ORIENTED_EDGE('',*,*,#414,.T.);
#559=ORIENTED_EDGE('',*,*,#415,.F.);
#560=ORIENTED_EDGE('',*,*,#403,.F.);
#561=ORIENTED_EDGE('',*,*,#416,.T.);
#562=ORIENTED_EDGE('',*,*,#417,.T.);
#563=ORIENTED_EDGE('',*,*,#413,.F.);
#564=ORIENTED_EDGE('',*,*,#401,.F.);
#565=ORIENTED_EDGE('',*,*,#408,.F.);
#566=ORIENTED_EDGE('',*,*,#411,.F.);
#567=ORIENTED_EDGE('',*,*,#406,.F.);
#568=ORIENTED_EDGE('',*,*,#412,.F.);
#569=ORIENTED_EDGE('',*,*,#415,.T.);
#570=ORIENTED_EDGE('',*,*,#418,.T.);
#571=ORIENTED_EDGE('',*,*,#419,.F.);
#572=ORIENTED_EDGE('',*,*,#405,.F.);
#573=ORIENTED_EDGE('',*,*,#419,.T.);
#574=ORIENTED_EDGE('',*,*,#420,.T.);
#575=ORIENTED_EDGE('',*,*,#416,.F.);
#576=ORIENTED_EDGE('',*,*,#421,.F.);
#577=ORIENTED_EDGE('',*,*,#356,.F.);
#578=ORIENTED_EDGE('',*,*,#358,.F.);
#579=ORIENTED_EDGE('',*,*,#343,.F.);
#580=ORIENTED_EDGE('',*,*,#418,.F.);
#581=ORIENTED_EDGE('',*,*,#414,.F.);
#582=ORIENTED_EDGE('',*,*,#417,.F.);
#583=ORIENTED_EDGE('',*,*,#420,.F.);
#584=ORIENTED_EDGE('',*,*,#399,.F.);
#585=ORIENTED_EDGE('',*,*,#354,.F.);
#586=ORIENTED_EDGE('',*,*,#357,.T.);
#587=ORIENTED_EDGE('',*,*,#421,.T.);
#588=ORIENTED_EDGE('',*,*,#342,.F.);
#589=ORIENTED_EDGE('',*,*,#386,.F.);
#590=ORIENTED_EDGE('',*,*,#422,.T.);
#591=ORIENTED_EDGE('',*,*,#359,.T.);
#592=ORIENTED_EDGE('',*,*,#423,.F.);
#593=ORIENTED_EDGE('',*,*,#383,.F.);
#594=ORIENTED_EDGE('',*,*,#423,.T.);
#595=ORIENTED_EDGE('',*,*,#366,.T.);
#596=ORIENTED_EDGE('',*,*,#424,.F.);
#597=ORIENTED_EDGE('',*,*,#380,.F.);
#598=ORIENTED_EDGE('',*,*,#424,.T.);
#599=ORIENTED_EDGE('',*,*,#365,.T.);
#600=ORIENTED_EDGE('',*,*,#395,.F.);
#601=ORIENTED_EDGE('',*,*,#389,.F.);
#602=ORIENTED_EDGE('',*,*,#392,.T.);
#603=ORIENTED_EDGE('',*,*,#360,.T.);
#604=ORIENTED_EDGE('',*,*,#422,.F.);
#605=PLANE('',#740);
#606=PLANE('',#741);
#607=PLANE('',#742);
#608=PLANE('',#743);
#609=PLANE('',#744);
#610=PLANE('',#745);
#611=PLANE('',#746);
#612=PLANE('',#747);
#613=PLANE('',#748);
#614=PLANE('',#749);
#615=PLANE('',#750);
#616=PLANE('',#751);
#617=PLANE('',#752);
#618=PLANE('',#753);
#619=PLANE('',#754);
#620=PLANE('',#755);
#621=PLANE('',#756);
#622=PLANE('',#757);
#623=PLANE('',#758);
#624=PLANE('',#759);
#625=PLANE('',#760);
#626=PLANE('',#761);
#627=PLANE('',#775);
#628=PLANE('',#776);
#629=PLANE('',#777);
#630=PLANE('',#778);
#631=PLANE('',#779);
#632=PLANE('',#780);
#633=PLANE('',#781);
#634=PLANE('',#782);
#635=PLANE('',#783);
#636=PLANE('',#784);
#637=PLANE('',#785);
#638=PLANE('',#786);
#639=ADVANCED_FACE('',(#31),#605,.T.);
#640=ADVANCED_FACE('',(#32),#606,.T.);
#641=ADVANCED_FACE('',(#33),#607,.T.);
#642=ADVANCED_FACE('',(#34),#608,.T.);
#643=ADVANCED_FACE('',(#35),#609,.T.);
#644=ADVANCED_FACE('',(#36),#610,.T.);
#645=ADVANCED_FACE('',(#37),#611,.T.);
#646=ADVANCED_FACE('',(#38),#612,.T.);
#647=ADVANCED_FACE('',(#39,#28),#613,.F.);
#648=ADVANCED_FACE('',(#40),#614,.T.);
#649=ADVANCED_FACE('',(#41),#615,.T.);
#650=ADVANCED_FACE('',(#42),#616,.T.);
#651=ADVANCED_FACE('',(#43),#617,.T.);
#652=ADVANCED_FACE('',(#44),#618,.T.);
#653=ADVANCED_FACE('',(#45),#619,.T.);
#654=ADVANCED_FACE('',(#46),#620,.T.);
#655=ADVANCED_FACE('',(#47),#621,.T.);
#656=ADVANCED_FACE('',(#48),#622,.T.);
#657=ADVANCED_FACE('',(#49),#623,.T.);
#658=ADVANCED_FACE('',(#50),#624,.T.);
#659=ADVANCED_FACE('',(#51),#625,.T.);
#660=ADVANCED_FACE('',(#52,#29),#626,.T.);
#661=ADVANCED_FACE('',(#53),#24,.F.);
#662=ADVANCED_FACE('',(#54),#19,.F.);
#663=ADVANCED_FACE('',(#55),#20,.F.);
#664=ADVANCED_FACE('',(#56),#21,.F.);
#665=ADVANCED_FACE('',(#57),#22,.F.);
#666=ADVANCED_FACE('',(#58),#23,.F.);
#667=ADVANCED_FACE('',(#59),#627,.T.);
#668=ADVANCED_FACE('',(#60),#628,.T.);
#669=ADVANCED_FACE('',(#61),#629,.T.);
#670=ADVANCED_FACE('',(#62),#630,.T.);
#671=ADVANCED_FACE('',(#63),#631,.T.);
#672=ADVANCED_FACE('',(#64,#30),#632,.T.);
#673=ADVANCED_FACE('',(#65),#633,.F.);
#674=ADVANCED_FACE('',(#66),#634,.T.);
#675=ADVANCED_FACE('',(#67),#635,.T.);
#676=ADVANCED_FACE('',(#68),#636,.T.);
#677=ADVANCED_FACE('',(#69),#637,.T.);
#678=ADVANCED_FACE('',(#70),#638,.T.);
#679=CLOSED_SHELL('',(#639,#640,#641,#642,#643,#644,#645,#646,#647,#648,
#649,#650,#651,#652,#653,#654,#655,#656,#657,#658,#659,#660,#661,#662,#663,
#664,#665,#666,#667,#668,#669,#670,#671,#672,#673,#674,#675,#676,#677,#678));
#680=ITEM_DEFINED_TRANSFORMATION($,$,#734,#735);
#681=ITEM_DEFINED_TRANSFORMATION($,$,#739,#787);
#682=ITEM_DEFINED_TRANSFORMATION($,$,#738,#788);
#683=ITEM_DEFINED_TRANSFORMATION($,$,#737,#789);
#684=ITEM_DEFINED_TRANSFORMATION($,$,#733,#790);
#685=ITEM_DEFINED_TRANSFORMATION($,$,#736,#791);
#686=ITEM_DEFINED_TRANSFORMATION($,$,#732,#792);
#687=(
REPRESENTATION_RELATIONSHIP($,$,#1248,#1247)
REPRESENTATION_RELATIONSHIP_WITH_TRANSFORMATION(#680)
SHAPE_REPRESENTATION_RELATIONSHIP()
);
#688=(
REPRESENTATION_RELATIONSHIP($,$,#1252,#1251)
REPRESENTATION_RELATIONSHIP_WITH_TRANSFORMATION(#681)
SHAPE_REPRESENTATION_RELATIONSHIP()
);
#689=(
REPRESENTATION_RELATIONSHIP($,$,#1251,#1250)
REPRESENTATION_RELATIONSHIP_WITH_TRANSFORMATION(#682)
SHAPE_REPRESENTATION_RELATIONSHIP()
);
#690=(
REPRESENTATION_RELATIONSHIP($,$,#1250,#1249)
REPRESENTATION_RELATIONSHIP_WITH_TRANSFORMATION(#683)
SHAPE_REPRESENTATION_RELATIONSHIP()
);
#691=(
REPRESENTATION_RELATIONSHIP($,$,#1247,#1246)
REPRESENTATION_RELATIONSHIP_WITH_TRANSFORMATION(#684)
SHAPE_REPRESENTATION_RELATIONSHIP()
);
#692=(
REPRESENTATION_RELATIONSHIP($,$,#1249,#1246)
REPRESENTATION_RELATIONSHIP_WITH_TRANSFORMATION(#685)
SHAPE_REPRESENTATION_RELATIONSHIP()
);
#693=(
REPRESENTATION_RELATIONSHIP($,$,#1246,#1245)
REPRESENTATION_RELATIONSHIP_WITH_TRANSFORMATION(#686)
SHAPE_REPRESENTATION_RELATIONSHIP()
);
#694=CONTEXT_DEPENDENT_SHAPE_REPRESENTATION(#687,#1234);
#695=CONTEXT_DEPENDENT_SHAPE_REPRESENTATION(#688,#1239);
#696=CONTEXT_DEPENDENT_SHAPE_REPRESENTATION(#689,#1240);
#697=CONTEXT_DEPENDENT_SHAPE_REPRESENTATION(#690,#1241);
#698=CONTEXT_DEPENDENT_SHAPE_REPRESENTATION(#691,#1242);
#699=CONTEXT_DEPENDENT_SHAPE_REPRESENTATION(#692,#1243);
#700=CONTEXT_DEPENDENT_SHAPE_REPRESENTATION(#693,#1244);
#701=NEXT_ASSEMBLY_USAGE_OCCURRENCE('Inlay_124_SM:1','Inlay_124_SM:1',
'Inlay_124_SM:1',#1256,#1257,'Inlay_124_SM:1');
#702=NEXT_ASSEMBLY_USAGE_OCCURRENCE('SoS_TM_124:1','SoS_TM_124:1',
'SoS_TM_124:1',#1260,#1261,'SoS_TM_124:1');
#703=NEXT_ASSEMBLY_USAGE_OCCURRENCE('Drawers_TM_124:1',
'Drawers_TM_124:1','Drawers_TM_124:1',#1259,#1260,'Drawers_TM_124:1');
#704=NEXT_ASSEMBLY_USAGE_OCCURRENCE('Inlays_TM_124:1','Inlays_TM_124:1',
'Inlays_TM_124:1',#1258,#1259,'Inlays_TM_124:1');
#705=NEXT_ASSEMBLY_USAGE_OCCURRENCE('Slotcar_Modul_124:1',
'Slotcar_Modul_124:1','Slotcar_Modul_124:1',#1255,#1256,
'Slotcar_Modul_124:1');
#706=NEXT_ASSEMBLY_USAGE_OCCURRENCE('Tools_Modul_124:1',
'Tools_Modul_124:1','Tools_Modul_124:1',#1255,#1258,'Tools_Modul_124:1');
#707=NEXT_ASSEMBLY_USAGE_OCCURRENCE('SlotCrate-124:1','SlotCrate-124:1',
'SlotCrate-124:1',#1254,#1255,'SlotCrate-124:1');
#708=DERIVED_UNIT_ELEMENT(#712,1.);
#709=DERIVED_UNIT_ELEMENT(#1219,-3.);
#710=DERIVED_UNIT_ELEMENT(#712,1.);
#711=DERIVED_UNIT_ELEMENT(#1219,-3.);
#712=(
MASS_UNIT()
NAMED_UNIT(*)
SI_UNIT(.KILO.,.GRAM.)
);
#713=DERIVED_UNIT((#708,#709));
#714=DERIVED_UNIT((#710,#711));
#715=MEASURE_REPRESENTATION_ITEM('density measure',
POSITIVE_RATIO_MEASURE(1060.),#713);
#716=MEASURE_REPRESENTATION_ITEM('density measure',
POSITIVE_RATIO_MEASURE(1060.),#714);
#717=PROPERTY_DEFINITION_REPRESENTATION(#727,#721);
#718=PROPERTY_DEFINITION_REPRESENTATION(#728,#722);
#719=PROPERTY_DEFINITION_REPRESENTATION(#729,#723);
#720=PROPERTY_DEFINITION_REPRESENTATION(#730,#724);
#721=REPRESENTATION('material name',(#725),#1212);
#722=REPRESENTATION('density',(#715),#1212);
#723=REPRESENTATION('material name',(#726),#1216);
#724=REPRESENTATION('density',(#716),#1216);
#725=DESCRIPTIVE_REPRESENTATION_ITEM('ABS-Kunststoff','ABS-Kunststoff');
#726=DESCRIPTIVE_REPRESENTATION_ITEM('ABS-Kunststoff','ABS-Kunststoff');
#727=PROPERTY_DEFINITION('material property','material name',#1257);
#728=PROPERTY_DEFINITION('material property','density of part',#1257);
#729=PROPERTY_DEFINITION('material property','material name',#1261);
#730=PROPERTY_DEFINITION('material property','density of part',#1261);
#731=AXIS2_PLACEMENT_3D('',#1000,#793,#794);
#732=AXIS2_PLACEMENT_3D('',#1001,#795,#796);
#733=AXIS2_PLACEMENT_3D('',#1002,#797,#798);
#734=AXIS2_PLACEMENT_3D('',#1003,#799,#800);
#735=AXIS2_PLACEMENT_3D('',#1004,#801,#802);
#736=AXIS2_PLACEMENT_3D('',#1005,#803,#804);
#737=AXIS2_PLACEMENT_3D('',#1006,#805,#806);
#738=AXIS2_PLACEMENT_3D('',#1007,#807,#808);
#739=AXIS2_PLACEMENT_3D('',#1008,#809,#810);
#740=AXIS2_PLACEMENT_3D('',#1009,#811,#812);
#741=AXIS2_PLACEMENT_3D('',#1022,#819,#820);
#742=AXIS2_PLACEMENT_3D('',#1030,#825,#826);
#743=AXIS2_PLACEMENT_3D('',#1036,#830,#831);
#744=AXIS2_PLACEMENT_3D('',#1040,#834,#835);
#745=AXIS2_PLACEMENT_3D('',#1046,#839,#840);
#746=AXIS2_PLACEMENT_3D('',#1049,#843,#844);
#747=AXIS2_PLACEMENT_3D('',#1055,#848,#849);
#748=AXIS2_PLACEMENT_3D('',#1057,#851,#852);
#749=AXIS2_PLACEMENT_3D('',#1074,#861,#862);
#750=AXIS2_PLACEMENT_3D('',#1083,#867,#868);
#751=AXIS2_PLACEMENT_3D('',#1089,#872,#873);
#752=AXIS2_PLACEMENT_3D('',#1098,#878,#879);
#753=AXIS2_PLACEMENT_3D('',#1101,#882,#883);
#754=AXIS2_PLACEMENT_3D('',#1107,#887,#888);
#755=AXIS2_PLACEMENT_3D('',#1113,#892,#893);
#756=AXIS2_PLACEMENT_3D('',#1119,#897,#898);
#757=AXIS2_PLACEMENT_3D('',#1122,#901,#902);
#758=AXIS2_PLACEMENT_3D('',#1125,#905,#906);
#759=AXIS2_PLACEMENT_3D('',#1127,#908,#909);
#760=AXIS2_PLACEMENT_3D('',#1129,#911,#912);
#761=AXIS2_PLACEMENT_3D('',#1131,#914,#915);
#762=AXIS2_PLACEMENT_3D('',#1133,#916,#917);
#763=AXIS2_PLACEMENT_3D('',#1134,#918,#919);
#764=AXIS2_PLACEMENT_3D('',#1136,#920,#921);
#765=AXIS2_PLACEMENT_3D('',#1138,#923,#924);
#766=AXIS2_PLACEMENT_3D('',#1140,#925,#926);
#767=AXIS2_PLACEMENT_3D('',#1142,#928,#929);
#768=AXIS2_PLACEMENT_3D('',#1147,#931,#932);
#769=AXIS2_PLACEMENT_3D('',#1150,#934,#935);
#770=AXIS2_PLACEMENT_3D('',#1151,#936,#937);
#771=AXIS2_PLACEMENT_3D('',#1156,#940,#941);
#772=AXIS2_PLACEMENT_3D('',#1157,#942,#943);
#773=AXIS2_PLACEMENT_3D('',#1162,#946,#947);
#774=AXIS2_PLACEMENT_3D('',#1163,#948,#949);
#775=AXIS2_PLACEMENT_3D('',#1166,#952,#953);
#776=AXIS2_PLACEMENT_3D('',#1172,#957,#958);
#777=AXIS2_PLACEMENT_3D('',#1176,#961,#962);
#778=AXIS2_PLACEMENT_3D('',#1177,#963,#964);
#779=AXIS2_PLACEMENT_3D('',#1181,#967,#968);
#780=AXIS2_PLACEMENT_3D('',#1183,#970,#971);
#781=AXIS2_PLACEMENT_3D('',#1185,#973,#974);
#782=AXIS2_PLACEMENT_3D('',#1186,#975,#976);
#783=AXIS2_PLACEMENT_3D('',#1187,#977,#978);
#784=AXIS2_PLACEMENT_3D('',#1190,#981,#982);
#785=AXIS2_PLACEMENT_3D('',#1192,#984,#985);
#786=AXIS2_PLACEMENT_3D('',#1193,#986,#987);
#787=AXIS2_PLACEMENT_3D('',#1194,#988,#989);
#788=AXIS2_PLACEMENT_3D('',#1195,#990,#991);
#789=AXIS2_PLACEMENT_3D('',#1196,#992,#993);
#790=AXIS2_PLACEMENT_3D('',#1197,#994,#995);
#791=AXIS2_PLACEMENT_3D('',#1198,#996,#997);
#792=AXIS2_PLACEMENT_3D('',#1199,#998,#999);
#793=DIRECTION('axis',(0.,0.,1.));
#794=DIRECTION('refdir',(1.,0.,0.));
#795=DIRECTION('axis',(0.,0.,1.));
#796=DIRECTION('refdir',(1.,0.,0.));
#797=DIRECTION('axis',(0.,0.,1.));
#798=DIRECTION('refdir',(1.,0.,0.));
#799=DIRECTION('axis',(0.,0.,1.));
#800=DIRECTION('refdir',(1.,0.,0.));
#801=DIRECTION('',(0.,0.,1.));
#802=DIRECTION('',(1.,0.,0.));
#803=DIRECTION('axis',(0.,0.,1.));
#804=DIRECTION('refdir',(1.,0.,0.));
#805=DIRECTION('axis',(0.,0.,1.));
#806=DIRECTION('refdir',(1.,0.,0.));
#807=DIRECTION('axis',(0.,0.,1.));
#808=DIRECTION('refdir',(1.,0.,0.));
#809=DIRECTION('axis',(0.,0.,1.));
#810=DIRECTION('refdir',(1.,0.,0.));
#811=DIRECTION('center_axis',(0.,-0.382683432365087,0.923879532511288));
#812=DIRECTION('ref_axis',(1.,0.,0.));
#813=DIRECTION('',(0.678598344545854,-0.678598344545842,-0.281084637714816));
#814=DIRECTION('',(1.,0.,0.));
#815=DIRECTION('',(0.678598344545854,0.678598344545842,0.281084637714816));
#816=DIRECTION('',(0.,0.923879532511288,0.382683432365087));
#817=DIRECTION('',(-1.,0.,0.));
#818=DIRECTION('',(0.,-0.923879532511288,-0.382683432365087));
#819=DIRECTION('center_axis',(1.,0.,0.));
#820=DIRECTION('ref_axis',(0.,0.,-1.));
#821=DIRECTION('',(0.,0.,1.));
#822=DIRECTION('',(0.,1.,0.));
#823=DIRECTION('',(0.,-8.11121844475E-17,-1.));
#824=DIRECTION('',(0.,1.,0.));
#825=DIRECTION('center_axis',(0.707106781186541,-0.707106781186554,0.));
#826=DIRECTION('ref_axis',(0.,0.,-1.));
#827=DIRECTION('',(0.577350269189622,0.577350269189633,0.577350269189622));
#828=DIRECTION('',(0.,0.,-1.));
#829=DIRECTION('',(0.577350269189616,0.577350269189626,-0.577350269189636));
#830=DIRECTION('center_axis',(0.,-0.707106781186554,0.707106781186541));
#831=DIRECTION('ref_axis',(1.,0.,0.));
#832=DIRECTION('',(-0.577350269189636,0.577350269189626,0.577350269189616));
#833=DIRECTION('',(1.,0.,0.));
#834=DIRECTION('center_axis',(-0.707106781186541,-0.707106781186554,0.));
#835=DIRECTION('ref_axis',(0.,0.,1.));
#836=DIRECTION('',(0.,0.,-1.));
#837=DIRECTION('',(0.577350269189629,-0.577350269189619,0.577350269189629));
#838=DIRECTION('',(0.,0.,1.));
#839=DIRECTION('center_axis',(0.,-0.707106781186554,-0.707106781186541));
#840=DIRECTION('ref_axis',(-1.,0.,0.));
#841=DIRECTION('',(-1.,0.,0.));
#842=DIRECTION('',(1.,0.,0.));
#843=DIRECTION('center_axis',(-1.,0.,0.));
#844=DIRECTION('ref_axis',(0.,0.,1.));
#845=DIRECTION('',(0.,1.,0.));
#846=DIRECTION('',(0.,8.11121844475E-17,1.));
#847=DIRECTION('',(0.,1.,0.));
#848=DIRECTION('center_axis',(0.,0.,1.));
#849=DIRECTION('ref_axis',(1.,0.,0.));
#850=DIRECTION('',(1.,0.,0.));
#851=DIRECTION('center_axis',(0.,1.,0.));
#852=DIRECTION('ref_axis',(0.,0.,1.));
#853=DIRECTION('',(-0.707106781186521,0.,0.707106781186574));
#854=DIRECTION('',(0.,0.,1.));
#855=DIRECTION('',(0.707106781186561,0.,0.707106781186534));
#856=DIRECTION('',(1.,0.,0.));
#857=DIRECTION('',(0.707106781186561,0.,-0.707106781186534));
#858=DIRECTION('',(0.,0.,-1.));
#859=DIRECTION('',(-0.707106781186587,0.,-0.707106781186508));
#860=DIRECTION('',(-1.,0.,0.));
#861=DIRECTION('center_axis',(0.49999999999999,-0.707106781186548,-0.500000000000009));
#862=DIRECTION('ref_axis',(-0.707106781186561,0.,-0.707106781186534));
#863=DIRECTION('',(-0.707106781186561,0.,-0.707106781186534));
#864=DIRECTION('',(0.281084637714759,0.678598344545842,-0.678598344545878));
#865=DIRECTION('',(0.707106781186561,0.,0.707106781186534));
#866=DIRECTION('',(0.678598344545873,0.678598344545837,-0.281084637714781));
#867=DIRECTION('center_axis',(0.,-0.707106781186554,-0.707106781186541));
#868=DIRECTION('ref_axis',(-1.,0.,0.));
#869=DIRECTION('',(-1.,0.,0.));
#870=DIRECTION('',(-0.281084637714781,0.678598344545837,-0.678598344545873));
#871=DIRECTION('',(1.,0.,0.));
#872=DIRECTION('center_axis',(-0.707106781186541,-0.707106781186554,0.));
#873=DIRECTION('ref_axis',(0.,0.,1.));
#874=DIRECTION('',(0.,0.,-1.));
#875=DIRECTION('',(0.678598344545833,-0.678598344545845,0.281084637714857));
#876=DIRECTION('',(0.,0.,1.));
#877=DIRECTION('',(-0.678598344545833,0.678598344545845,0.281084637714857));
#878=DIRECTION('center_axis',(-0.49999999999999,-0.707106781186548,-0.500000000000009));
#879=DIRECTION('ref_axis',(-0.707106781186561,0.,0.707106781186534));
#880=DIRECTION('',(-0.707106781186561,0.,0.707106781186534));
#881=DIRECTION('',(0.707106781186561,0.,-0.707106781186534));
#882=DIRECTION('center_axis',(-0.499999999999972,-0.707106781186548,0.500000000000028));
#883=DIRECTION('ref_axis',(0.707106781186587,0.,0.707106781186508));
#884=DIRECTION('',(-0.707106781186587,0.,-0.707106781186508));
#885=DIRECTION('',(0.707106781186587,0.,0.707106781186508));
#886=DIRECTION('',(-0.281084637714786,0.678598344545848,0.67859834454586));
#887=DIRECTION('center_axis',(0.,-0.707106781186554,0.707106781186541));
#888=DIRECTION('ref_axis',(1.,0.,0.));
#889=DIRECTION('',(-1.,0.,0.));
#890=DIRECTION('',(1.,0.,0.));
#891=DIRECTION('',(0.281084637714808,0.678598344545844,0.678598344545856));
#892=DIRECTION('center_axis',(0.500000000000018,-0.707106781186548,0.499999999999981));
#893=DIRECTION('ref_axis',(0.707106781186521,0.,-0.707106781186574));
#894=DIRECTION('',(-0.707106781186521,0.,0.707106781186574));
#895=DIRECTION('',(0.707106781186521,0.,-0.707106781186574));
#896=DIRECTION('',(0.678598344545878,0.678598344545842,0.281084637714759));
#897=DIRECTION('center_axis',(0.707106781186541,-0.707106781186554,0.));
#898=DIRECTION('ref_axis',(0.,0.,-1.));
#899=DIRECTION('',(0.,0.,1.));
#900=DIRECTION('',(0.,0.,-1.));
#901=DIRECTION('center_axis',(0.707106781186534,-5.70942712248633E-15,-0.707106781186561));
#902=DIRECTION('ref_axis',(-0.707106781186561,0.,-0.707106781186534));
#903=DIRECTION('',(8.07434927000112E-15,1.,0.));
#904=DIRECTION('',(8.07434927000112E-15,1.,0.));
#905=DIRECTION('center_axis',(0.,0.,-1.));
#906=DIRECTION('ref_axis',(-1.,0.,0.));
#907=DIRECTION('',(8.07434927000112E-15,1.,0.));
#908=DIRECTION('center_axis',(-0.707106781186534,5.70942712248633E-15,-0.707106781186561));
#909=DIRECTION('ref_axis',(-0.707106781186561,0.,0.707106781186534));
#910=DIRECTION('',(8.07434927000112E-15,1.,0.));
#911=DIRECTION('center_axis',(-1.,8.07434927000112E-15,0.));
#912=DIRECTION('ref_axis',(0.,0.,1.));
#913=DIRECTION('',(8.07434927000112E-15,1.,0.));
#914=DIRECTION('center_axis',(0.,-1.,0.));
#915=DIRECTION('ref_axis',(0.,0.,-1.));
#916=DIRECTION('center_axis',(0.,-1.,0.));
#917=DIRECTION('ref_axis',(-1.,0.,0.));
#918=DIRECTION('center_axis',(0.,-1.,0.));
#919=DIRECTION('ref_axis',(-1.,3.74149757077025E-15,0.));
#920=DIRECTION('center_axis',(0.,1.,0.));
#921=DIRECTION('ref_axis',(-1.,8.07434927000112E-15,0.));
#922=DIRECTION('',(0.70710678118654,-0.707106781186555,-8.65956056235484E-17));
#923=DIRECTION('center_axis',(8.07434927000112E-15,1.,0.));
#924=DIRECTION('ref_axis',(-1.,8.07434927000112E-15,0.));
#925=DIRECTION('center_axis',(0.,1.,0.));
#926=DIRECTION('ref_axis',(-1.,8.07434927000112E-15,0.));
#927=DIRECTION('',(-8.07434927000112E-15,-1.,0.));
#928=DIRECTION('center_axis',(1.,0.,0.));
#929=DIRECTION('ref_axis',(0.,-0.707106781186547,0.707106781186547));
#930=DIRECTION('',(-1.,0.,0.));
#931=DIRECTION('center_axis',(-0.707106781186553,0.,-0.707106781186543));
#932=DIRECTION('ref_axis',(-0.707106781186543,0.,0.707106781186552));
#933=DIRECTION('',(1.,0.,0.));
#934=DIRECTION('center_axis',(0.707106781186548,0.,-0.707106781186548));
#935=DIRECTION('ref_axis',(-0.707106781186547,0.,-0.707106781186547));
#936=DIRECTION('center_axis',(0.,0.,1.));
#937=DIRECTION('ref_axis',(-0.707106781186547,-0.707106781186547,0.));
#938=DIRECTION('',(0.,0.,1.));
#939=DIRECTION('',(0.,0.,-1.));
#940=DIRECTION('center_axis',(-0.707106781186548,0.,0.707106781186548));
#941=DIRECTION('ref_axis',(0.707106781186547,0.,0.707106781186547));
#942=DIRECTION('center_axis',(0.,0.,-1.));
#943=DIRECTION('ref_axis',(0.707106781186547,-0.707106781186547,0.));
#944=DIRECTION('',(0.,0.,1.));
#945=DIRECTION('',(0.,0.,-1.));
#946=DIRECTION('center_axis',(-0.707106781186543,0.,-0.707106781186553));
#947=DIRECTION('ref_axis',(-0.707106781186552,0.,0.707106781186543));
#948=DIRECTION('center_axis',(-1.,0.,0.));
#949=DIRECTION('ref_axis',(0.,-0.707106781186547,-0.707106781186547));
#950=DIRECTION('',(1.,0.,0.));
#951=DIRECTION('',(-1.,0.,0.));
#952=DIRECTION('center_axis',(-1.,0.,0.));
#953=DIRECTION('ref_axis',(0.,0.,1.));
#954=DIRECTION('',(0.,1.,0.));
#955=DIRECTION('',(0.,8.11121844475E-17,1.));
#956=DIRECTION('',(0.,1.,0.));
#957=DIRECTION('center_axis',(0.,0.,-1.));
#958=DIRECTION('ref_axis',(-1.,0.,0.));
#959=DIRECTION('',(0.,1.,0.));
#960=DIRECTION('',(-1.,0.,0.));
#961=DIRECTION('center_axis',(0.,1.,0.));
#962=DIRECTION('ref_axis',(0.,0.,1.));
#963=DIRECTION('center_axis',(0.,0.,1.));
#964=DIRECTION('ref_axis',(1.,0.,0.));
#965=DIRECTION('',(1.,0.,0.));
#966=DIRECTION('',(0.,1.,0.));
#967=DIRECTION('center_axis',(1.,0.,0.));
#968=DIRECTION('ref_axis',(0.,0.,-1.));
#969=DIRECTION('',(0.,-8.11121844475E-17,-1.));
#970=DIRECTION('center_axis',(0.,1.,-8.11121844475E-17));
#971=DIRECTION('ref_axis',(0.,8.11121844475E-17,1.));
#972=DIRECTION('',(-1.,0.,0.));
#973=DIRECTION('center_axis',(0.,1.,0.));
#974=DIRECTION('ref_axis',(0.,0.,1.));
#975=DIRECTION('center_axis',(0.,0.,-1.));
#976=DIRECTION('ref_axis',(-1.,0.,0.));
#977=DIRECTION('center_axis',(0.707106781186574,-5.70942712248665E-15,0.707106781186521));
#978=DIRECTION('ref_axis',(0.707106781186521,0.,-0.707106781186574));
#979=DIRECTION('',(8.07434927000112E-15,1.,0.));
#980=DIRECTION('',(8.07434927000112E-15,1.,0.));
#981=DIRECTION('center_axis',(0.,0.,1.));
#982=DIRECTION('ref_axis',(1.,0.,0.));
#983=DIRECTION('',(8.07434927000112E-15,1.,0.));
#984=DIRECTION('center_axis',(-0.707106781186508,5.70942712248612E-15,0.707106781186587));
#985=DIRECTION('ref_axis',(0.707106781186587,0.,0.707106781186508));
#986=DIRECTION('center_axis',(1.,-8.07434927000112E-15,0.));
#987=DIRECTION('ref_axis',(0.,0.,-1.));
#988=DIRECTION('',(0.,0.,1.));
#989=DIRECTION('',(1.,0.,0.));
#990=DIRECTION('',(0.,0.,1.));
#991=DIRECTION('',(1.,0.,0.));
#992=DIRECTION('',(0.,0.,1.));
#993=DIRECTION('',(1.,0.,0.));
#994=DIRECTION('',(0.,0.,1.));
#995=DIRECTION('',(1.,0.,0.));
#996=DIRECTION('',(0.,0.,1.));
#997=DIRECTION('',(1.,0.,0.));
#998=DIRECTION('',(0.,0.,1.));
#999=DIRECTION('',(1.,0.,0.));
#1000=CARTESIAN_POINT('',(0.,0.,0.));
#1001=CARTESIAN_POINT('',(0.,0.,0.));
#1002=CARTESIAN_POINT('',(0.,0.,0.));
#1003=CARTESIAN_POINT('',(0.,0.,0.));
#1004=CARTESIAN_POINT('',(0.,0.,0.));
#1005=CARTESIAN_POINT('',(0.,0.,0.));
#1006=CARTESIAN_POINT('',(0.,0.,0.));
#1007=CARTESIAN_POINT('',(0.,0.,0.));
#1008=CARTESIAN_POINT('',(0.,0.,0.));
#1009=CARTESIAN_POINT('Origin',(184.60625,105.846446609407,181.516446609407));
#1010=CARTESIAN_POINT('',(181.97,105.7,181.455786437627));
#1011=CARTESIAN_POINT('',(182.677106781187,104.992893218813,181.162893218814));
#1012=CARTESIAN_POINT('',(184.236773402937,103.433226597063,180.516858151304));
#1013=CARTESIAN_POINT('',(202.352893218814,104.992893218813,181.162893218814));
#1014=CARTESIAN_POINT('',(184.60625,104.992893218813,181.162893218814));
#1015=CARTESIAN_POINT('',(203.06,105.7,181.455786437627));
#1016=CARTESIAN_POINT('',(198.156976597063,100.796976597063,179.424887647498));
#1017=CARTESIAN_POINT('',(203.06,106.7,181.87));
#1018=CARTESIAN_POINT('',(203.06,105.41966991411,181.33966991411));
#1019=CARTESIAN_POINT('',(181.97,106.7,181.87));
#1020=CARTESIAN_POINT('',(184.60625,106.7,181.87));
#1021=CARTESIAN_POINT('',(181.97,101.691449410304,179.795390417916));
#1022=CARTESIAN_POINT('Origin',(203.06,104.7,181.87));
#1023=CARTESIAN_POINT('',(203.06,105.7,160.78));
#1024=CARTESIAN_POINT('',(203.06,105.7,176.5975));
#1025=CARTESIAN_POINT('',(203.06,136.5,160.78));
#1026=CARTESIAN_POINT('',(203.06,104.7,160.78));
#1027=CARTESIAN_POINT('',(203.06,136.5,181.87));
#1028=CARTESIAN_POINT('',(203.06,136.5,176.5975));
#1029=CARTESIAN_POINT('',(203.06,104.7,181.87));
#1030=CARTESIAN_POINT('Origin',(202.56,105.2,176.5975));
#1031=CARTESIAN_POINT('',(202.06,104.7,180.87));
#1032=CARTESIAN_POINT('',(202.06,104.7,180.87));
#1033=CARTESIAN_POINT('',(202.06,104.7,161.78));
#1034=CARTESIAN_POINT('',(202.06,104.7,176.5975));
#1035=CARTESIAN_POINT('',(202.06,104.7,161.78));
#1036=CARTESIAN_POINT('Origin',(187.2425,105.2,181.37));
#1037=CARTESIAN_POINT('',(182.97,104.7,180.87));
#1038=CARTESIAN_POINT('',(182.97,104.7,180.87));
#1039=CARTESIAN_POINT('',(187.2425,104.7,180.87));
#1040=CARTESIAN_POINT('Origin',(182.47,105.2,166.0525));
#1041=CARTESIAN_POINT('',(181.97,105.7,160.78));
#1042=CARTESIAN_POINT('',(181.97,105.7,166.0525));
#1043=CARTESIAN_POINT('',(182.97,104.7,161.78));
#1044=CARTESIAN_POINT('',(181.97,105.7,160.78));
#1045=CARTESIAN_POINT('',(182.97,104.7,166.0525));
#1046=CARTESIAN_POINT('Origin',(197.7875,105.2,161.28));
#1047=CARTESIAN_POINT('',(197.7875,104.7,161.78));
#1048=CARTESIAN_POINT('',(197.7875,105.7,160.78));
#1049=CARTESIAN_POINT('Origin',(181.97,104.7,160.78));
#1050=CARTESIAN_POINT('',(181.97,136.5,181.87));
#1051=CARTESIAN_POINT('',(181.97,104.7,181.87));
#1052=CARTESIAN_POINT('',(181.97,136.5,160.78));
#1053=CARTESIAN_POINT('',(181.97,136.5,166.0525));
#1054=CARTESIAN_POINT('',(181.97,104.7,160.78));
#1055=CARTESIAN_POINT('Origin',(181.97,104.7,181.87));
#1056=CARTESIAN_POINT('',(187.2425,136.5,181.87));
#1057=CARTESIAN_POINT('Origin',(192.515,104.7,171.325));
#1058=CARTESIAN_POINT('',(201.76,104.7,179.6155));
#1059=CARTESIAN_POINT('',(200.8055,104.7,180.57));
#1060=CARTESIAN_POINT('',(201.044125000001,104.7,180.331375));
#1061=CARTESIAN_POINT('',(201.76,104.7,163.0345));
#1062=CARTESIAN_POINT('',(201.76,104.7,175.47025));
#1063=CARTESIAN_POINT('',(200.8055,104.7,162.08));
#1064=CARTESIAN_POINT('',(201.521375,104.7,162.795875));
#1065=CARTESIAN_POINT('',(184.2245,104.7,162.08));
#1066=CARTESIAN_POINT('',(196.66025,104.7,162.08));
#1067=CARTESIAN_POINT('',(183.27,104.7,163.0345));
#1068=CARTESIAN_POINT('',(183.985875,104.7,162.318625));
#1069=CARTESIAN_POINT('',(183.27,104.7,179.6155));
#1070=CARTESIAN_POINT('',(183.27,104.7,167.17975));
#1071=CARTESIAN_POINT('',(184.2245,104.7,180.57));
#1072=CARTESIAN_POINT('',(183.508625000001,104.7,179.854125));
#1073=CARTESIAN_POINT('',(188.36975,104.7,180.57));
#1074=CARTESIAN_POINT('Origin',(201.167821609407,101.2,163.149428390593));
#1075=CARTESIAN_POINT('',(200.76,100.7,163.448713562373));
#1076=CARTESIAN_POINT('',(200.391286437627,100.7,163.08));
#1077=CARTESIAN_POINT('',(200.814268218814,100.7,163.502981781186));
#1078=CARTESIAN_POINT('',(200.8055,101.7,162.08));
#1079=CARTESIAN_POINT('',(200.391286437627,100.7,163.08));
#1080=CARTESIAN_POINT('',(201.76,101.7,163.0345));
#1081=CARTESIAN_POINT('',(201.521375,101.7,162.795875));
#1082=CARTESIAN_POINT('',(200.76,100.7,163.448713562373));
#1083=CARTESIAN_POINT('Origin',(196.66025,101.2,162.58));
#1084=CARTESIAN_POINT('',(184.638713562373,100.7,163.08));
#1085=CARTESIAN_POINT('',(196.66025,100.7,163.08));
#1086=CARTESIAN_POINT('',(184.2245,101.7,162.08));
#1087=CARTESIAN_POINT('',(184.638713562373,100.7,163.08));
#1088=CARTESIAN_POINT('',(196.66025,101.7,162.08));
#1089=CARTESIAN_POINT('Origin',(183.77,101.2,167.17975));
#1090=CARTESIAN_POINT('',(183.27,101.7,179.6155));
#1091=CARTESIAN_POINT('',(183.27,101.7,163.0345));
#1092=CARTESIAN_POINT('',(183.27,101.7,167.17975));
#1093=CARTESIAN_POINT('',(184.27,100.7,163.448713562373));
#1094=CARTESIAN_POINT('',(183.27,101.7,163.0345));
#1095=CARTESIAN_POINT('',(184.27,100.7,179.201286437627));
#1096=CARTESIAN_POINT('',(184.27,100.7,167.17975));
#1097=CARTESIAN_POINT('',(184.27,100.7,179.201286437627));
#1098=CARTESIAN_POINT('Origin',(184.339428390594,101.2,162.672178390593));
#1099=CARTESIAN_POINT('',(184.692981781187,100.7,163.025731781186));
#1100=CARTESIAN_POINT('',(183.985875,101.7,162.318625));
#1101=CARTESIAN_POINT('Origin',(183.862178390594,101.2,179.500571609407));
#1102=CARTESIAN_POINT('',(184.2245,101.7,180.57));
#1103=CARTESIAN_POINT('',(183.508625000001,101.7,179.854125));
#1104=CARTESIAN_POINT('',(184.638713562373,100.7,179.57));
#1105=CARTESIAN_POINT('',(184.215731781187,100.7,179.147018218814));
#1106=CARTESIAN_POINT('',(184.638713562373,100.7,179.57));
#1107=CARTESIAN_POINT('Origin',(188.36975,101.2,180.07));
#1108=CARTESIAN_POINT('',(200.8055,101.7,180.57));
#1109=CARTESIAN_POINT('',(188.36975,101.7,180.57));
#1110=CARTESIAN_POINT('',(200.391286437627,100.7,179.57));
#1111=CARTESIAN_POINT('',(188.36975,100.7,179.57));
#1112=CARTESIAN_POINT('',(200.391286437627,100.7,179.57));
#1113=CARTESIAN_POINT('Origin',(200.690571609407,101.2,179.977821609407));
#1114=CARTESIAN_POINT('',(201.76,101.7,179.6155));
#1115=CARTESIAN_POINT('',(201.044125000001,101.7,180.331375));
#1116=CARTESIAN_POINT('',(200.76,100.7,179.201286437627));
#1117=CARTESIAN_POINT('',(200.337018218814,100.7,179.624268218813));
#1118=CARTESIAN_POINT('',(200.76,100.7,179.201286437627));
#1119=CARTESIAN_POINT('Origin',(201.26,101.2,175.47025));
#1120=CARTESIAN_POINT('',(201.76,101.7,175.47025));
#1121=CARTESIAN_POINT('',(200.76,100.7,175.47025));
#1122=CARTESIAN_POINT('Origin',(201.76,100.7,163.0345));
#1123=CARTESIAN_POINT('',(200.8055,100.7,162.08));
#1124=CARTESIAN_POINT('',(201.76,100.7,163.0345));
#1125=CARTESIAN_POINT('Origin',(200.8055,100.7,162.08));
#1126=CARTESIAN_POINT('',(184.2245,100.7,162.08));
#1127=CARTESIAN_POINT('Origin',(184.2245,100.7,162.08));
#1128=CARTESIAN_POINT('',(183.27,100.7,163.0345));
#1129=CARTESIAN_POINT('Origin',(183.27,100.7,163.0345));
#1130=CARTESIAN_POINT('',(183.27,100.7,179.6155));
#1131=CARTESIAN_POINT('Origin',(192.515,100.7,171.325));
#1132=CARTESIAN_POINT('',(199.842,100.7,171.325));
#1133=CARTESIAN_POINT('Origin',(192.515,100.7,171.325));
#1134=CARTESIAN_POINT('Origin',(192.515,101.2,171.325));
#1135=CARTESIAN_POINT('',(198.842,101.7,171.325));
#1136=CARTESIAN_POINT('Origin',(192.515,101.7,171.325));
#1137=CARTESIAN_POINT('',(199.342,101.2,171.325));
#1138=CARTESIAN_POINT('Origin',(192.515,100.7,171.325));
#1139=CARTESIAN_POINT('',(198.842,104.7,171.325));
#1140=CARTESIAN_POINT('Origin',(192.515,104.7,171.325));
#1141=CARTESIAN_POINT('',(198.842,100.7,171.325));
#1142=CARTESIAN_POINT('Origin',(197.1875,108.2,178.17));
#1143=CARTESIAN_POINT('',(199.36,105.7,178.17));
#1144=CARTESIAN_POINT('',(185.67,105.7,178.17));
#1145=CARTESIAN_POINT('',(197.1875,105.7,178.17));
#1146=CARTESIAN_POINT('',(183.17,108.2,180.67));
#1147=CARTESIAN_POINT('Origin',(185.67,108.2,178.17));
#1148=CARTESIAN_POINT('',(201.86,108.2,180.67));
#1149=CARTESIAN_POINT('',(197.1875,108.2,180.67));
#1150=CARTESIAN_POINT('Origin',(199.36,108.2,178.17));
#1151=CARTESIAN_POINT('Origin',(185.67,108.2,175.9975));
#1152=CARTESIAN_POINT('',(183.17,108.2,161.98));
#1153=CARTESIAN_POINT('',(183.17,108.2,175.9975));
#1154=CARTESIAN_POINT('',(185.67,105.7,164.48));
#1155=CARTESIAN_POINT('',(185.67,105.7,175.9975));
#1156=CARTESIAN_POINT('Origin',(185.67,108.2,164.48));
#1157=CARTESIAN_POINT('Origin',(199.36,108.2,166.6525));
#1158=CARTESIAN_POINT('',(199.36,105.7,164.48));
#1159=CARTESIAN_POINT('',(199.36,105.7,166.6525));
#1160=CARTESIAN_POINT('',(201.86,108.2,161.98));
#1161=CARTESIAN_POINT('',(201.86,108.2,166.6525));
#1162=CARTESIAN_POINT('Origin',(199.36,108.2,164.48));
#1163=CARTESIAN_POINT('Origin',(187.8425,108.2,164.48));
#1164=CARTESIAN_POINT('',(187.8425,105.7,164.48));
#1165=CARTESIAN_POINT('',(187.8425,108.2,161.98));
#1166=CARTESIAN_POINT('Origin',(201.86,105.7,161.98));
#1167=CARTESIAN_POINT('',(201.86,136.5,180.67));
#1168=CARTESIAN_POINT('',(201.86,105.7,180.67));
#1169=CARTESIAN_POINT('',(201.86,136.5,161.98));
#1170=CARTESIAN_POINT('',(201.86,136.5,166.6525));
#1171=CARTESIAN_POINT('',(201.86,105.7,161.98));
#1172=CARTESIAN_POINT('Origin',(201.86,105.7,180.67));
#1173=CARTESIAN_POINT('',(183.17,136.5,180.67));
#1174=CARTESIAN_POINT('',(183.17,105.7,180.67));
#1175=CARTESIAN_POINT('',(197.1875,136.5,180.67));
#1176=CARTESIAN_POINT('Origin',(192.515,105.7,171.325));
#1177=CARTESIAN_POINT('Origin',(183.17,105.7,161.98));
#1178=CARTESIAN_POINT('',(183.17,136.5,161.98));
#1179=CARTESIAN_POINT('',(187.8425,136.5,161.98));
#1180=CARTESIAN_POINT('',(183.17,105.7,161.98));
#1181=CARTESIAN_POINT('Origin',(183.17,105.7,180.67));
#1182=CARTESIAN_POINT('',(183.17,136.5,175.9975));
#1183=CARTESIAN_POINT('Origin',(192.515,136.5,171.325));
#1184=CARTESIAN_POINT('',(197.7875,136.5,160.78));
#1185=CARTESIAN_POINT('Origin',(192.515,104.7,171.325));
#1186=CARTESIAN_POINT('Origin',(203.06,104.7,160.78));
#1187=CARTESIAN_POINT('Origin',(200.8055,100.7,180.57));
#1188=CARTESIAN_POINT('',(201.76,100.7,179.6155));
#1189=CARTESIAN_POINT('',(200.8055,100.7,180.57));
#1190=CARTESIAN_POINT('Origin',(184.2245,100.7,180.57));
#1191=CARTESIAN_POINT('',(184.2245,100.7,180.57));
#1192=CARTESIAN_POINT('Origin',(183.27,100.7,179.6155));
#1193=CARTESIAN_POINT('Origin',(201.76,100.7,179.6155));
#1194=CARTESIAN_POINT('',(0.,0.,0.));
#1195=CARTESIAN_POINT('',(0.,0.,0.));
#1196=CARTESIAN_POINT('',(0.,0.,0.));
#1197=CARTESIAN_POINT('',(0.,0.,0.));
#1198=CARTESIAN_POINT('',(0.,0.,0.));
#1199=CARTESIAN_POINT('',(0.,0.,0.));
#1200=UNCERTAINTY_MEASURE_WITH_UNIT(LENGTH_MEASURE(0.01),#1218,
'DISTANCE_ACCURACY_VALUE',
'Maximum model space distance between geometric entities at asserted c
onnectivities');
#1201=UNCERTAINTY_MEASURE_WITH_UNIT(LENGTH_MEASURE(0.01),#1218,
'DISTANCE_ACCURACY_VALUE',
'Maximum model space distance between geometric entities at asserted c
onnectivities');
#1202=UNCERTAINTY_MEASURE_WITH_UNIT(LENGTH_MEASURE(0.01),#1218,
'DISTANCE_ACCURACY_VALUE',
'Maximum model space distance between geometric entities at asserted c
onnectivities');
#1203=UNCERTAINTY_MEASURE_WITH_UNIT(LENGTH_MEASURE(0.01),#1218,
'DISTANCE_ACCURACY_VALUE',
'Maximum model space distance between geometric entities at asserted c
onnectivities');
#1204=UNCERTAINTY_MEASURE_WITH_UNIT(LENGTH_MEASURE(0.01),#1218,
'DISTANCE_ACCURACY_VALUE',
'Maximum model space distance between geometric entities at asserted c
onnectivities');
#1205=UNCERTAINTY_MEASURE_WITH_UNIT(LENGTH_MEASURE(0.01),#1218,
'DISTANCE_ACCURACY_VALUE',
'Maximum model space distance between geometric entities at asserted c
onnectivities');
#1206=UNCERTAINTY_MEASURE_WITH_UNIT(LENGTH_MEASURE(0.01),#1218,
'DISTANCE_ACCURACY_VALUE',
'Maximum model space distance between geometric entities at asserted c
onnectivities');
#1207=UNCERTAINTY_MEASURE_WITH_UNIT(LENGTH_MEASURE(0.01),#1218,
'DISTANCE_ACCURACY_VALUE',
'Maximum model space distance between geometric entities at asserted c
onnectivities');
#1208=UNCERTAINTY_MEASURE_WITH_UNIT(LENGTH_MEASURE(0.01),#1218,
'DISTANCE_ACCURACY_VALUE',
'Maximum model space distance between geometric entities at asserted c
onnectivities');
#1209=(
GEOMETRIC_REPRESENTATION_CONTEXT(3)
GLOBAL_UNCERTAINTY_ASSIGNED_CONTEXT((#1200))
GLOBAL_UNIT_ASSIGNED_CONTEXT((#1218,#1220,#1221))
REPRESENTATION_CONTEXT('','3D')
);
#1210=(
GEOMETRIC_REPRESENTATION_CONTEXT(3)
GLOBAL_UNCERTAINTY_ASSIGNED_CONTEXT((#1201))
GLOBAL_UNIT_ASSIGNED_CONTEXT((#1218,#1220,#1221))
REPRESENTATION_CONTEXT('','3D')
);
#1211=(
GEOMETRIC_REPRESENTATION_CONTEXT(3)
GLOBAL_UNCERTAINTY_ASSIGNED_CONTEXT((#1202))
GLOBAL_UNIT_ASSIGNED_CONTEXT((#1218,#1220,#1221))
REPRESENTATION_CONTEXT('','3D')
);
#1212=(
GEOMETRIC_REPRESENTATION_CONTEXT(3)
GLOBAL_UNCERTAINTY_ASSIGNED_CONTEXT((#1203))
GLOBAL_UNIT_ASSIGNED_CONTEXT((#1218,#1220,#1221))
REPRESENTATION_CONTEXT('','3D')
);
#1213=(
GEOMETRIC_REPRESENTATION_CONTEXT(3)
GLOBAL_UNCERTAINTY_ASSIGNED_CONTEXT((#1204))
GLOBAL_UNIT_ASSIGNED_CONTEXT((#1218,#1220,#1221))
REPRESENTATION_CONTEXT('','3D')
);
#1214=(
GEOMETRIC_REPRESENTATION_CONTEXT(3)
GLOBAL_UNCERTAINTY_ASSIGNED_CONTEXT((#1205))
GLOBAL_UNIT_ASSIGNED_CONTEXT((#1218,#1220,#1221))
REPRESENTATION_CONTEXT('','3D')
);
#1215=(
GEOMETRIC_REPRESENTATION_CONTEXT(3)
GLOBAL_UNCERTAINTY_ASSIGNED_CONTEXT((#1206))
GLOBAL_UNIT_ASSIGNED_CONTEXT((#1218,#1220,#1221))
REPRESENTATION_CONTEXT('','3D')
);
#1216=(
GEOMETRIC_REPRESENTATION_CONTEXT(3)
GLOBAL_UNCERTAINTY_ASSIGNED_CONTEXT((#1207))
GLOBAL_UNIT_ASSIGNED_CONTEXT((#1218,#1220,#1221))
REPRESENTATION_CONTEXT('','3D')
);
#1217=(
GEOMETRIC_REPRESENTATION_CONTEXT(3)
GLOBAL_UNCERTAINTY_ASSIGNED_CONTEXT((#1208))
GLOBAL_UNIT_ASSIGNED_CONTEXT((#1218,#1220,#1221))
REPRESENTATION_CONTEXT('','3D')
);
#1218=(
LENGTH_UNIT()
NAMED_UNIT(*)
SI_UNIT(.MILLI.,.METRE.)
);
#1219=(
LENGTH_UNIT()
NAMED_UNIT(*)
SI_UNIT($,.METRE.)
);
#1220=(
NAMED_UNIT(*)
PLANE_ANGLE_UNIT()
SI_UNIT($,.RADIAN.)
);
#1221=(
NAMED_UNIT(*)
SI_UNIT($,.STERADIAN.)
SOLID_ANGLE_UNIT()
);
#1222=SHAPE_DEFINITION_REPRESENTATION(#1230,#1245);
#1223=SHAPE_DEFINITION_REPRESENTATION(#1231,#1246);
#1224=SHAPE_DEFINITION_REPRESENTATION(#1232,#1247);
#1225=SHAPE_DEFINITION_REPRESENTATION(#1233,#1248);
#1226=SHAPE_DEFINITION_REPRESENTATION(#1235,#1249);
#1227=SHAPE_DEFINITION_REPRESENTATION(#1236,#1250);
#1228=SHAPE_DEFINITION_REPRESENTATION(#1237,#1251);
#1229=SHAPE_DEFINITION_REPRESENTATION(#1238,#1252);
#1230=PRODUCT_DEFINITION_SHAPE('',$,#1254);
#1231=PRODUCT_DEFINITION_SHAPE('',$,#1255);
#1232=PRODUCT_DEFINITION_SHAPE('',$,#1256);
#1233=PRODUCT_DEFINITION_SHAPE('',$,#1257);
#1234=PRODUCT_DEFINITION_SHAPE($,$,#701);
#1235=PRODUCT_DEFINITION_SHAPE('',$,#1258);
#1236=PRODUCT_DEFINITION_SHAPE('',$,#1259);
#1237=PRODUCT_DEFINITION_SHAPE('',$,#1260);
#1238=PRODUCT_DEFINITION_SHAPE('',$,#1261);
#1239=PRODUCT_DEFINITION_SHAPE($,$,#702);
#1240=PRODUCT_DEFINITION_SHAPE($,$,#703);
#1241=PRODUCT_DEFINITION_SHAPE($,$,#704);
#1242=PRODUCT_DEFINITION_SHAPE($,$,#705);
#1243=PRODUCT_DEFINITION_SHAPE($,$,#706);
#1244=PRODUCT_DEFINITION_SHAPE($,$,#707);
#1245=SHAPE_REPRESENTATION('',(#731,#792),#1209);
#1246=SHAPE_REPRESENTATION('',(#732,#790,#791),#1210);
#1247=SHAPE_REPRESENTATION('',(#733,#735),#1211);
#1248=SHAPE_REPRESENTATION('',(#734),#1212);
#1249=SHAPE_REPRESENTATION('',(#736,#789),#1213);
#1250=SHAPE_REPRESENTATION('',(#737,#788),#1214);
#1251=SHAPE_REPRESENTATION('',(#738,#787),#1215);
#1252=SHAPE_REPRESENTATION('',(#739),#1216);
#1253=PRODUCT_DEFINITION_CONTEXT('part definition',#1279,'design');
#1254=PRODUCT_DEFINITION('SlotCrate','SlotCrate v99',#1262,#1253);
#1255=PRODUCT_DEFINITION('SlotCrate-124','SlotCrate-124',#1263,#1253);
#1256=PRODUCT_DEFINITION('Slotcar_Modul_124','Slotcar_Modul_124',#1264,
#1253);
#1257=PRODUCT_DEFINITION('Inlay_124_SM','Inlay_124_SM',#1265,#1253);
#1258=PRODUCT_DEFINITION('Tools_Modul_124','Tools_Modul_124',#1266,#1253);
#1259=PRODUCT_DEFINITION('Inlays_TM_124','Inlays_TM_124',#1267,#1253);
#1260=PRODUCT_DEFINITION('Drawers_TM_124','Drawers_TM_124',#1268,#1253);
#1261=PRODUCT_DEFINITION('SoS_TM_124','SoS_TM_124',#1269,#1253);
#1262=PRODUCT_DEFINITION_FORMATION('',$,#1281);
#1263=PRODUCT_DEFINITION_FORMATION('',$,#1282);
#1264=PRODUCT_DEFINITION_FORMATION('',$,#1283);
#1265=PRODUCT_DEFINITION_FORMATION('',$,#1284);
#1266=PRODUCT_DEFINITION_FORMATION('',$,#1285);
#1267=PRODUCT_DEFINITION_FORMATION('',$,#1286);
#1268=PRODUCT_DEFINITION_FORMATION('',$,#1287);
#1269=PRODUCT_DEFINITION_FORMATION('',$,#1288);
#1270=PRODUCT_RELATED_PRODUCT_CATEGORY('SlotCrate v99','SlotCrate v99',
(#1281));
#1271=PRODUCT_RELATED_PRODUCT_CATEGORY('SlotCrate-124','SlotCrate-124',
(#1282));
#1272=PRODUCT_RELATED_PRODUCT_CATEGORY('Slotcar_Modul_124',
'Slotcar_Modul_124',(#1283));
#1273=PRODUCT_RELATED_PRODUCT_CATEGORY('Inlay_124_SM','Inlay_124_SM',(#1284));
#1274=PRODUCT_RELATED_PRODUCT_CATEGORY('Tools_Modul_124',
'Tools_Modul_124',(#1285));
#1275=PRODUCT_RELATED_PRODUCT_CATEGORY('Inlays_TM_124','Inlays_TM_124',
(#1286));
#1276=PRODUCT_RELATED_PRODUCT_CATEGORY('Drawers_TM_124',
'Drawers_TM_124',(#1287));
#1277=PRODUCT_RELATED_PRODUCT_CATEGORY('SoS_TM_124','SoS_TM_124',(#1288));
#1278=APPLICATION_PROTOCOL_DEFINITION('international standard',
'automotive_design',2009,#1279);
#1279=APPLICATION_CONTEXT(
'Core Data for Automotive Mechanical Design Process');
#1280=PRODUCT_CONTEXT('part definition',#1279,'mechanical');
#1281=PRODUCT('SlotCrate','SlotCrate v99',$,(#1280));
#1282=PRODUCT('SlotCrate-124','SlotCrate-124',$,(#1280));
#1283=PRODUCT('Slotcar_Modul_124','Slotcar_Modul_124',$,(#1280));
#1284=PRODUCT('Inlay_124_SM','Inlay_124_SM',$,(#1280));
#1285=PRODUCT('Tools_Modul_124','Tools_Modul_124',$,(#1280));
#1286=PRODUCT('Inlays_TM_124','Inlays_TM_124',$,(#1280));
#1287=PRODUCT('Drawers_TM_124','Drawers_TM_124',$,(#1280));
#1288=PRODUCT('SoS_TM_124','SoS_TM_124',$,(#1280));
#1289=PRESENTATION_STYLE_ASSIGNMENT((#1297));
#1290=PRESENTATION_STYLE_ASSIGNMENT((#1298));
#1291=PRESENTATION_STYLE_ASSIGNMENT((#1299));
#1292=PRESENTATION_STYLE_ASSIGNMENT((#1300));
#1293=PRESENTATION_STYLE_ASSIGNMENT((#1301));
#1294=PRESENTATION_STYLE_ASSIGNMENT((#1302));
#1295=PRESENTATION_STYLE_ASSIGNMENT((#1303));
#1296=PRESENTATION_STYLE_ASSIGNMENT((#1304));
#1297=SURFACE_STYLE_USAGE(.BOTH.,#1305);
#1298=SURFACE_STYLE_USAGE(.BOTH.,#1306);
#1299=SURFACE_STYLE_USAGE(.BOTH.,#1307);
#1300=SURFACE_STYLE_USAGE(.BOTH.,#1308);
#1301=SURFACE_STYLE_USAGE(.BOTH.,#1309);
#1302=SURFACE_STYLE_USAGE(.BOTH.,#1310);
#1303=SURFACE_STYLE_USAGE(.BOTH.,#1311);
#1304=SURFACE_STYLE_USAGE(.BOTH.,#1312);
#1305=SURFACE_SIDE_STYLE('',(#1313));
#1306=SURFACE_SIDE_STYLE('',(#1314));
#1307=SURFACE_SIDE_STYLE('',(#1315));
#1308=SURFACE_SIDE_STYLE('',(#1316));
#1309=SURFACE_SIDE_STYLE('',(#1317));
#1310=SURFACE_SIDE_STYLE('',(#1318));
#1311=SURFACE_SIDE_STYLE('',(#1319));
#1312=SURFACE_SIDE_STYLE('',(#1320));
#1313=SURFACE_STYLE_FILL_AREA(#1321);
#1314=SURFACE_STYLE_FILL_AREA(#1322);
#1315=SURFACE_STYLE_FILL_AREA(#1323);
#1316=SURFACE_STYLE_FILL_AREA(#1324);
#1317=SURFACE_STYLE_FILL_AREA(#1325);
#1318=SURFACE_STYLE_FILL_AREA(#1326);
#1319=SURFACE_STYLE_FILL_AREA(#1327);
#1320=SURFACE_STYLE_FILL_AREA(#1328);
#1321=FILL_AREA_STYLE('ABS (Wei\X\DF)',(#1329));
#1322=FILL_AREA_STYLE('Kunststoff - matt (Schwarz)',(#1330));
#1323=FILL_AREA_STYLE('Kunststoff - matt (Gr\X\FCn)',(#1331));
#1324=FILL_AREA_STYLE('FR4',(#1332));
#1325=FILL_AREA_STYLE('Kunststoff - matt (Gelb)',(#1333));
#1326=FILL_AREA_STYLE('Kunststoff - matt (Rot)',(#1334));
#1327=FILL_AREA_STYLE('Pulverbeschichtung - rau (Dunkelgrau)',(#1335));
#1328=FILL_AREA_STYLE('Kunststoff - matt (Blau)',(#1336));
#1329=FILL_AREA_STYLE_COLOUR('ABS (Wei\X\DF)',#1337);
#1330=FILL_AREA_STYLE_COLOUR('Kunststoff - matt (Schwarz)',#1338);
#1331=FILL_AREA_STYLE_COLOUR('Kunststoff - matt (Gr\X\FCn)',#1339);
#1332=FILL_AREA_STYLE_COLOUR('FR4',#1340);
#1333=FILL_AREA_STYLE_COLOUR('Kunststoff - matt (Gelb)',#1341);
#1334=FILL_AREA_STYLE_COLOUR('Kunststoff - matt (Rot)',#1342);
#1335=FILL_AREA_STYLE_COLOUR('Pulverbeschichtung - rau (Dunkelgrau)',#1343);
#1336=FILL_AREA_STYLE_COLOUR('Kunststoff - matt (Blau)',#1344);
#1337=COLOUR_RGB('ABS (Wei\X\DF)',0.964705882352941,0.964705882352941,0.952941176470588);
#1338=COLOUR_RGB('Kunststoff - matt (Schwarz)',0.0980392156862745,0.0980392156862745,
0.0980392156862745);
#1339=COLOUR_RGB('Kunststoff - matt (Gr\X\FCn)',0.266666666666667,0.588235294117647,
0.282352941176471);
#1340=COLOUR_RGB('FR4',0.266666666666667,0.466666666666667,0.4);
#1341=COLOUR_RGB('Kunststoff - matt (Gelb)',0.909803921568627,0.67843137254902,
0.137254901960784);
#1342=COLOUR_RGB('Kunststoff - matt (Rot)',0.768627450980392,0.207843137254902,
0.152941176470588);
#1343=COLOUR_RGB('Pulverbeschichtung - rau (Dunkelgrau)',0.349019607843137,
0.349019607843137,0.349019607843137);
#1344=COLOUR_RGB('Kunststoff - matt (Blau)',0.188235294117647,0.231372549019608,
0.588235294117647);
ENDSEC;
END-ISO-10303-21;
